<?xml version="1.0" encoding="UTF-8" standalone="no"?>
<!-- Created with Inkscape (http://www.inkscape.org/) -->

<svg
   xmlns:rendltx="http://NOTSET"
   xmlns:dc="http://purl.org/dc/elements/1.1/"
   xmlns:cc="http://creativecommons.org/ns#"
   xmlns:rdf="http://www.w3.org/1999/02/22-rdf-syntax-ns#"
   xmlns:svg="http://www.w3.org/2000/svg"
   xmlns="http://www.w3.org/2000/svg"
   xmlns:xlink="http://www.w3.org/1999/xlink"
   xmlns:sodipodi="http://sodipodi.sourceforge.net/DTD/sodipodi-0.dtd"
   xmlns:inkscape="http://www.inkscape.org/namespaces/inkscape"
   sodipodi:docname="dessin_courbure1.svg"
   inkscape:version="0.92.4 (5da689c313, 2019-01-14)"
   id="svg8"
   version="1.1"
   viewBox="0 0 297 209.99999"
   height="210mm"
   width="297mm">
  <defs
     id="defs2">
    <linearGradient
       inkscape:collect="always"
       id="linearGradient3670">
      <stop
         style="stop-color:#ffccaa;stop-opacity:1;"
         offset="0"
         id="stop3666" />
      <stop
         style="stop-color:#ffccaa;stop-opacity:0;"
         offset="1"
         id="stop3668" />
    </linearGradient>
    <marker
       inkscape:stockid="Arrow1Lend"
       orient="auto"
       refY="0.0"
       refX="0.0"
       id="marker2051"
       style="overflow:visible;"
       inkscape:isstock="true">
      <path
         id="path2049"
         d="M 0.0,0.0 L 5.0,-5.0 L -12.5,0.0 L 5.0,5.0 L 0.0,0.0 z "
         style="fill-rule:evenodd;stroke:#000000;stroke-width:1pt;stroke-opacity:1;fill:#000000;fill-opacity:1"
         transform="scale(0.8) rotate(180) translate(12.5,0)" />
    </marker>
    <marker
       inkscape:stockid="Arrow1Lend"
       orient="auto"
       refY="0.0"
       refX="0.0"
       id="marker2043"
       style="overflow:visible;"
       inkscape:isstock="true">
      <path
         id="path2041"
         d="M 0.0,0.0 L 5.0,-5.0 L -12.5,0.0 L 5.0,5.0 L 0.0,0.0 z "
         style="fill-rule:evenodd;stroke:#000000;stroke-width:1pt;stroke-opacity:1;fill:#000000;fill-opacity:1"
         transform="scale(0.8) rotate(180) translate(12.5,0)" />
    </marker>
    <marker
       inkscape:stockid="Arrow1Lend"
       orient="auto"
       refY="0.0"
       refX="0.0"
       id="marker2037"
       style="overflow:visible;"
       inkscape:isstock="true">
      <path
         id="path2035"
         d="M 0.0,0.0 L 5.0,-5.0 L -12.5,0.0 L 5.0,5.0 L 0.0,0.0 z "
         style="fill-rule:evenodd;stroke:#000000;stroke-width:1pt;stroke-opacity:1;fill:#000000;fill-opacity:1"
         transform="scale(0.8) rotate(180) translate(12.5,0)" />
    </marker>
    <marker
       inkscape:stockid="Arrow1Lend"
       orient="auto"
       refY="0.0"
       refX="0.0"
       id="marker2009"
       style="overflow:visible;"
       inkscape:isstock="true">
      <path
         id="path2007"
         d="M 0.0,0.0 L 5.0,-5.0 L -12.5,0.0 L 5.0,5.0 L 0.0,0.0 z "
         style="fill-rule:evenodd;stroke:#000000;stroke-width:1pt;stroke-opacity:1;fill:#000000;fill-opacity:1"
         transform="scale(0.8) rotate(180) translate(12.5,0)" />
    </marker>
    <marker
       inkscape:stockid="Arrow1Lend"
       orient="auto"
       refY="0.0"
       refX="0.0"
       id="marker1572"
       style="overflow:visible;"
       inkscape:isstock="true">
      <path
         id="path1309"
         d="M 0.0,0.0 L 5.0,-5.0 L -12.5,0.0 L 5.0,5.0 L 0.0,0.0 z "
         style="fill-rule:evenodd;stroke:#000000;stroke-width:1pt;stroke-opacity:1;fill:#000000;fill-opacity:1"
         transform="scale(0.8) rotate(180) translate(12.5,0)" />
    </marker>
    <marker
       inkscape:stockid="Arrow1Lstart"
       orient="auto"
       refY="0.0"
       refX="0.0"
       id="marker1569"
       style="overflow:visible"
       inkscape:isstock="true">
      <path
         id="path1306"
         d="M 0.0,0.0 L 5.0,-5.0 L -12.5,0.0 L 5.0,5.0 L 0.0,0.0 z "
         style="fill-rule:evenodd;stroke:#000000;stroke-width:1pt;stroke-opacity:1;fill:#000000;fill-opacity:1"
         transform="scale(0.8) translate(12.5,0)" />
    </marker>
    <linearGradient
       inkscape:collect="always"
       id="linearGradient989">
      <stop
         style="stop-color:#aad1ff;stop-opacity:1;"
         offset="0"
         id="stop985" />
      <stop
         style="stop-color:#aad1ff;stop-opacity:0;"
         offset="1"
         id="stop987" />
    </linearGradient>
    <linearGradient
       inkscape:collect="always"
       id="linearGradient971">
      <stop
         style="stop-color:#aad1ff;stop-opacity:1;"
         offset="0"
         id="stop967" />
      <stop
         style="stop-color:#aad1ff;stop-opacity:0;"
         offset="1"
         id="stop969" />
    </linearGradient>
    <linearGradient
       inkscape:collect="always"
       id="linearGradient945">
      <stop
         style="stop-color:#b3b3b3;stop-opacity:1;"
         offset="0"
         id="stop941" />
      <stop
         style="stop-color:#b3b3b3;stop-opacity:0;"
         offset="1"
         id="stop943" />
    </linearGradient>
    <linearGradient
       inkscape:collect="always"
       id="linearGradient935">
      <stop
         style="stop-color:#b3b3b3;stop-opacity:1;"
         offset="0"
         id="stop931" />
      <stop
         style="stop-color:#b3b3b3;stop-opacity:0;"
         offset="1"
         id="stop933" />
    </linearGradient>
    <marker
       inkscape:stockid="Arrow1Lend"
       orient="auto"
       refY="0.0"
       refX="0.0"
       id="marker5720"
       style="overflow:visible;"
       inkscape:isstock="true">
      <path
         id="path5718"
         d="M 0.0,0.0 L 5.0,-5.0 L -12.5,0.0 L 5.0,5.0 L 0.0,0.0 z "
         style="fill-rule:evenodd;stroke:#000000;stroke-width:1pt;stroke-opacity:1;fill:#000000;fill-opacity:1"
         transform="scale(0.8) rotate(180) translate(12.5,0)" />
    </marker>
    <marker
       inkscape:stockid="Arrow1Lend"
       orient="auto"
       refY="0.0"
       refX="0.0"
       id="marker5716"
       style="overflow:visible;"
       inkscape:isstock="true">
      <path
         id="path5714"
         d="M 0.0,0.0 L 5.0,-5.0 L -12.5,0.0 L 5.0,5.0 L 0.0,0.0 z "
         style="fill-rule:evenodd;stroke:#000000;stroke-width:1pt;stroke-opacity:1;fill:#000000;fill-opacity:1"
         transform="scale(0.8) rotate(180) translate(12.5,0)" />
    </marker>
    <marker
       inkscape:stockid="Arrow1Lend"
       orient="auto"
       refY="0.0"
       refX="0.0"
       id="Arrow1Lend"
       style="overflow:visible;"
       inkscape:isstock="true">
      <path
         id="path5405"
         d="M 0.0,0.0 L 5.0,-5.0 L -12.5,0.0 L 5.0,5.0 L 0.0,0.0 z "
         style="fill-rule:evenodd;stroke:#000000;stroke-width:1pt;stroke-opacity:1;fill:#000000;fill-opacity:1"
         transform="scale(0.8) rotate(180) translate(12.5,0)" />
    </marker>
    <marker
       inkscape:stockid="Arrow1Lstart"
       orient="auto"
       refY="0.0"
       refX="0.0"
       id="marker5710"
       style="overflow:visible"
       inkscape:isstock="true">
      <path
         id="path5708"
         d="M 0.0,0.0 L 5.0,-5.0 L -12.5,0.0 L 5.0,5.0 L 0.0,0.0 z "
         style="fill-rule:evenodd;stroke:#000000;stroke-width:1pt;stroke-opacity:1;fill:#000000;fill-opacity:1"
         transform="scale(0.8) translate(12.5,0)" />
    </marker>
    <marker
       inkscape:isstock="true"
       style="overflow:visible"
       id="marker5706"
       refX="0.0"
       refY="0.0"
       orient="auto"
       inkscape:stockid="Arrow1Lstart">
      <path
         transform="scale(0.8) translate(12.5,0)"
         style="fill-rule:evenodd;stroke:#000000;stroke-width:1pt;stroke-opacity:1;fill:#000000;fill-opacity:1"
         d="M 0.0,0.0 L 5.0,-5.0 L -12.5,0.0 L 5.0,5.0 L 0.0,0.0 z "
         id="path5704" />
    </marker>
    <marker
       inkscape:isstock="true"
       style="overflow:visible"
       id="marker5702"
       refX="0.0"
       refY="0.0"
       orient="auto"
       inkscape:stockid="Arrow1Lstart">
      <path
         transform="scale(0.8) translate(12.5,0)"
         style="fill-rule:evenodd;stroke:#000000;stroke-width:1pt;stroke-opacity:1;fill:#000000;fill-opacity:1"
         d="M 0.0,0.0 L 5.0,-5.0 L -12.5,0.0 L 5.0,5.0 L 0.0,0.0 z "
         id="path5700" />
    </marker>
    <marker
       inkscape:isstock="true"
       style="overflow:visible"
       id="marker5695"
       refX="0.0"
       refY="0.0"
       orient="auto"
       inkscape:stockid="Arrow2Lstart">
      <path
         transform="scale(1.1) translate(1,0)"
         d="M 8.7185878,4.0337352 L -2.2072895,0.016013256 L 8.7185884,-4.0017078 C 6.9730900,-1.6296469 6.9831476,1.6157441 8.7185878,4.0337352 z "
         style="fill-rule:evenodd;stroke-width:0.625;stroke-linejoin:round;stroke:#000000;stroke-opacity:1;fill:#000000;fill-opacity:1"
         id="path5693" />
    </marker>
    <marker
       inkscape:isstock="true"
       style="overflow:visible"
       id="marker5691"
       refX="0.0"
       refY="0.0"
       orient="auto"
       inkscape:stockid="Arrow2Lstart">
      <path
         transform="scale(1.1) translate(1,0)"
         d="M 8.7185878,4.0337352 L -2.2072895,0.016013256 L 8.7185884,-4.0017078 C 6.9730900,-1.6296469 6.9831476,1.6157441 8.7185878,4.0337352 z "
         style="fill-rule:evenodd;stroke-width:0.625;stroke-linejoin:round;stroke:#000000;stroke-opacity:1;fill:#000000;fill-opacity:1"
         id="path5689" />
    </marker>
    <marker
       inkscape:isstock="true"
       style="overflow:visible"
       id="marker5683"
       refX="0.0"
       refY="0.0"
       orient="auto"
       inkscape:stockid="Arrow2Lstart">
      <path
         transform="scale(1.1) translate(1,0)"
         d="M 8.7185878,4.0337352 L -2.2072895,0.016013256 L 8.7185884,-4.0017078 C 6.9730900,-1.6296469 6.9831476,1.6157441 8.7185878,4.0337352 z "
         style="fill-rule:evenodd;stroke-width:0.625;stroke-linejoin:round;stroke:#000000;stroke-opacity:1;fill:#000000;fill-opacity:1"
         id="path5681" />
    </marker>
    <marker
       inkscape:isstock="true"
       style="overflow:visible"
       id="marker5679"
       refX="0.0"
       refY="0.0"
       orient="auto"
       inkscape:stockid="Arrow2Lstart">
      <path
         transform="scale(1.1) translate(1,0)"
         d="M 8.7185878,4.0337352 L -2.2072895,0.016013256 L 8.7185884,-4.0017078 C 6.9730900,-1.6296469 6.9831476,1.6157441 8.7185878,4.0337352 z "
         style="fill-rule:evenodd;stroke-width:0.625;stroke-linejoin:round;stroke:#000000;stroke-opacity:1;fill:#000000;fill-opacity:1"
         id="path5677" />
    </marker>
    <marker
       inkscape:isstock="true"
       style="overflow:visible"
       id="marker5673"
       refX="0.0"
       refY="0.0"
       orient="auto"
       inkscape:stockid="Arrow1Lstart">
      <path
         transform="scale(0.8) translate(12.5,0)"
         style="fill-rule:evenodd;stroke:#000000;stroke-width:1pt;stroke-opacity:1;fill:#000000;fill-opacity:1"
         d="M 0.0,0.0 L 5.0,-5.0 L -12.5,0.0 L 5.0,5.0 L 0.0,0.0 z "
         id="path5671" />
    </marker>
    <marker
       inkscape:isstock="true"
       style="overflow:visible"
       id="marker5669"
       refX="0.0"
       refY="0.0"
       orient="auto"
       inkscape:stockid="Arrow1Lstart">
      <path
         transform="scale(0.8) translate(12.5,0)"
         style="fill-rule:evenodd;stroke:#000000;stroke-width:1pt;stroke-opacity:1;fill:#000000;fill-opacity:1"
         d="M 0.0,0.0 L 5.0,-5.0 L -12.5,0.0 L 5.0,5.0 L 0.0,0.0 z "
         id="path5667" />
    </marker>
    <marker
       inkscape:stockid="Arrow1Lend"
       orient="auto"
       refY="0"
       refX="0"
       id="marker1746"
       style="overflow:visible"
       inkscape:isstock="true">
      <path
         id="path1744"
         d="M 0,0 5,-5 -12.5,0 5,5 Z"
         style="fill:#000000;fill-opacity:1;fill-rule:evenodd;stroke:#000000;stroke-width:1.00000003pt;stroke-opacity:1"
         transform="matrix(-0.8,0,0,-0.8,-10,0)"
         inkscape:connector-curvature="0" />
    </marker>
    <marker
       inkscape:stockid="Arrow1Lend"
       orient="auto"
       refY="0"
       refX="0"
       id="marker1640"
       style="overflow:visible"
       inkscape:isstock="true">
      <path
         id="path1638"
         d="M 0,0 5,-5 -12.5,0 5,5 Z"
         style="fill:#000000;fill-opacity:1;fill-rule:evenodd;stroke:#000000;stroke-width:1.00000003pt;stroke-opacity:1"
         transform="matrix(-0.8,0,0,-0.8,-10,0)"
         inkscape:connector-curvature="0" />
    </marker>
    <marker
       inkscape:stockid="Arrow1Lstart"
       orient="auto"
       refY="0"
       refX="0"
       id="marker1144"
       style="overflow:visible"
       inkscape:isstock="true">
      <path
         inkscape:connector-curvature="0"
         id="path1142"
         d="M 0,0 5,-5 -12.5,0 5,5 Z"
         style="fill:#000000;fill-opacity:1;fill-rule:evenodd;stroke:#000000;stroke-width:1.00000003pt;stroke-opacity:1"
         transform="matrix(0.8,0,0,0.8,10,0)" />
    </marker>
    <marker
       inkscape:stockid="Arrow1Lend"
       orient="auto"
       refY="0"
       refX="0"
       id="marker2900"
       style="overflow:visible"
       inkscape:isstock="true">
      <path
         id="path2898"
         d="M 0,0 5,-5 -12.5,0 5,5 Z"
         style="fill:#000000;fill-opacity:1;fill-rule:evenodd;stroke:#000000;stroke-width:1.00000003pt;stroke-opacity:1"
         transform="matrix(-0.8,0,0,-0.8,-10,0)"
         inkscape:connector-curvature="0" />
    </marker>
    <marker
       inkscape:stockid="Arrow1Lend"
       orient="auto"
       refY="0"
       refX="0"
       id="marker2842"
       style="overflow:visible"
       inkscape:isstock="true">
      <path
         id="path2840"
         d="M 0,0 5,-5 -12.5,0 5,5 Z"
         style="fill:#000000;fill-opacity:1;fill-rule:evenodd;stroke:#000000;stroke-width:1.00000003pt;stroke-opacity:1"
         transform="matrix(-0.8,0,0,-0.8,-10,0)"
         inkscape:connector-curvature="0" />
    </marker>
    <marker
       inkscape:stockid="Arrow1Lend"
       orient="auto"
       refY="0"
       refX="0"
       id="marker2790"
       style="overflow:visible"
       inkscape:isstock="true">
      <path
         id="path2788"
         d="M 0,0 5,-5 -12.5,0 5,5 Z"
         style="fill:#000000;fill-opacity:1;fill-rule:evenodd;stroke:#000000;stroke-width:1.00000003pt;stroke-opacity:1"
         transform="matrix(-0.8,0,0,-0.8,-10,0)"
         inkscape:connector-curvature="0" />
    </marker>
    <marker
       inkscape:stockid="Arrow1Lstart"
       orient="auto"
       refY="0"
       refX="0"
       id="Arrow1Lstart"
       style="overflow:visible"
       inkscape:isstock="true">
      <path
         id="path1045"
         d="M 0,0 5,-5 -12.5,0 5,5 Z"
         style="fill:#000000;fill-opacity:1;fill-rule:evenodd;stroke:#000000;stroke-width:1.00000003pt;stroke-opacity:1"
         transform="matrix(0.8,0,0,0.8,10,0)"
         inkscape:connector-curvature="0" />
    </marker>
    <marker
       inkscape:stockid="Arrow1Lstart"
       orient="auto"
       refY="0"
       refX="0"
       id="marker1347-9"
       style="overflow:visible"
       inkscape:isstock="true">
      <path
         inkscape:connector-curvature="0"
         id="path1345-6"
         d="M 0,0 5,-5 -12.5,0 5,5 Z"
         style="fill:#000000;fill-opacity:1;fill-rule:evenodd;stroke:#000000;stroke-width:1.00000003pt;stroke-opacity:1"
         transform="matrix(0.8,0,0,0.8,10,0)" />
    </marker>
    <marker
       inkscape:stockid="Arrow1Lend"
       orient="auto"
       refY="0"
       refX="0"
       id="marker2900-2"
       style="overflow:visible"
       inkscape:isstock="true">
      <path
         inkscape:connector-curvature="0"
         id="path2898-2"
         d="M 0,0 5,-5 -12.5,0 5,5 Z"
         style="fill:#000000;fill-opacity:1;fill-rule:evenodd;stroke:#000000;stroke-width:1.00000003pt;stroke-opacity:1"
         transform="matrix(-0.8,0,0,-0.8,-10,0)" />
    </marker>
    <linearGradient
       inkscape:collect="always"
       xlink:href="#linearGradient935"
       id="linearGradient937"
       x1="286.45916"
       y1="411.83263"
       x2="545.53934"
       y2="411.83263"
       gradientUnits="userSpaceOnUse" />
    <linearGradient
       inkscape:collect="always"
       xlink:href="#linearGradient945"
       id="linearGradient947"
       x1="286.8961"
       y1="367.95863"
       x2="541.04796"
       y2="367.95863"
       gradientUnits="userSpaceOnUse" />
    <linearGradient
       inkscape:collect="always"
       xlink:href="#linearGradient971"
       id="linearGradient973"
       x1="422.80885"
       y1="327.94025"
       x2="634.87572"
       y2="327.94025"
       gradientUnits="userSpaceOnUse" />
    <linearGradient
       inkscape:collect="always"
       xlink:href="#linearGradient989"
       id="linearGradient991"
       x1="543.78815"
       y1="415.84089"
       x2="634.53091"
       y2="415.84089"
       gradientUnits="userSpaceOnUse" />
    <linearGradient
       inkscape:collect="always"
       xlink:href="#linearGradient3670"
       id="linearGradient3672"
       x1="470.35037"
       y1="306.75795"
       x2="607.82223"
       y2="306.75795"
       gradientUnits="userSpaceOnUse" />
  </defs>
  <sodipodi:namedview
     id="base"
     pagecolor="#ffffff"
     bordercolor="#666666"
     borderopacity="1.0"
     inkscape:pageopacity="0.0"
     inkscape:pageshadow="2"
     inkscape:zoom="1.5408829"
     inkscape:cx="483.594"
     inkscape:cy="381.50562"
     inkscape:document-units="mm"
     inkscape:current-layer="layer2"
     showgrid="false"
     inkscape:window-width="1920"
     inkscape:window-height="1017"
     inkscape:window-x="-8"
     inkscape:window-y="-8"
     inkscape:window-maximized="1"
     fit-margin-top="0"
     fit-margin-left="0"
     fit-margin-right="0"
     fit-margin-bottom="0">
    <inkscape:grid
       type="xygrid"
       id="grid815"
       originx="-33.616473"
       originy="-124.07522" />
  </sodipodi:namedview>
  <metadata
     id="metadata5">
    <rdf:RDF>
      <cc:Work
         rdf:about="">
        <dc:format>image/svg+xml</dc:format>
        <dc:type
           rdf:resource="http://purl.org/dc/dcmitype/StillImage" />
        <dc:title />
      </cc:Work>
    </rdf:RDF>
  </metadata>
  <g
     inkscape:label="Calque 1"
     inkscape:groupmode="layer"
     id="layer1"
     transform="translate(-33.616472,37.075217)">
    <path
       style="fill:none;stroke:#000000;stroke-width:0.265;stroke-linecap:butt;stroke-linejoin:miter;stroke-opacity:1;stroke-miterlimit:4;stroke-dasharray:none"
       d="m 109.20939,47.217938 c 3.38667,-1.693333 55.52937,-23.114087 55.52937,-23.114087 l 37.25334,40.640005 -55.88,23.706678 z"
       id="path819-4"
       inkscape:connector-curvature="0"
       sodipodi:nodetypes="ccccc" />
    <path
       style="opacity:1;fill:none;fill-opacity:1;stroke:#ff0000;stroke-width:0.27533043;stroke-miterlimit:4;stroke-dasharray:none;stroke-dashoffset:0;stroke-opacity:1"
       id="path838"
       sodipodi:type="arc"
       sodipodi:cx="112.90515"
       sodipodi:cy="-112.61123"
       sodipodi:rx="18.865627"
       sodipodi:ry="21.976725"
       sodipodi:start="0"
       sodipodi:end="3.1415927"
       d="m 131.77078,-112.61123 a 18.865627,21.976725 0 0 1 -9.43282,19.032403 18.865627,21.976725 0 0 1 -18.86562,0 18.865627,21.976725 0 0 1 -9.432816,-19.032403"
       transform="matrix(0.67934483,0.73381919,-0.93564164,0.35295145,0,0)"
       sodipodi:open="true" />
    <path
       style="fill:none;stroke:#000000;stroke-width:0.265;stroke-linecap:butt;stroke-linejoin:miter;stroke-miterlimit:4;stroke-dasharray:none;stroke-opacity:1"
       d="m 109.20939,51.959317 36.90271,41.232582 55.88,-23.706707"
       id="path908"
       inkscape:connector-curvature="0"
       sodipodi:nodetypes="ccc" />
    <path
       style="fill:none;stroke:#000000;stroke-width:0.16933332px;stroke-linecap:butt;stroke-linejoin:miter;stroke-opacity:1"
       d="m 170.88418,74.476855 c 0,6.14e-4 0.003,0.08508 0.0408,-0.06574"
       id="path958"
       inkscape:connector-curvature="0"
       sodipodi:nodetypes="cc" />
    <path
       style="fill:none;stroke:#000000;stroke-width:0.265;stroke-linecap:butt;stroke-linejoin:miter;stroke-miterlimit:4;stroke-dasharray:none;stroke-opacity:1"
       d="m 198.86844,66.029671 3.12431,3.456119"
       id="path1612"
       inkscape:connector-curvature="0"
       sodipodi:nodetypes="cc" />
    <path
       style="fill:none;stroke:#000000;stroke-width:0.265;stroke-linecap:butt;stroke-linejoin:miter;stroke-opacity:1;stroke-miterlimit:4;stroke-dasharray:none"
       d="m 109.20939,51.959317 3.12898,-1.376923"
       id="path5729"
       inkscape:connector-curvature="0"
       sodipodi:nodetypes="cc" />
    <path
       style="fill:none;stroke:#0a05ff;stroke-width:0.26499999;stroke-linecap:butt;stroke-linejoin:miter;stroke-miterlimit:4;stroke-dasharray:none;stroke-opacity:1"
       d="m 177.40664,80.025203 c -0.16199,-0.194247 0.76948,-1.510611 0.70756,-2.523422 -0.0802,-1.312095 -1.1276,-2.361808 -1.1276,-2.361808"
       id="path913"
       inkscape:connector-curvature="0"
       sodipodi:nodetypes="csc" />
    <path
       style="fill:none;stroke:#0600fc;stroke-width:0.26458332px;stroke-linecap:butt;stroke-linejoin:miter;stroke-opacity:1"
       d="m 176.98663,75.139973 c 0,0 -5.90988,-3.192084 -7.8693,-4.296147 -6.78511,-3.823169 -11.48881,-6.613411 -16.43009,-12.427318 -3.87998,-4.565177 -5.60238,-8.036217 -5.41315,-14.024477 0.0871,-2.756974 0.0183,-5.719279 -0.5873,-8.490964 -0.29388,-1.344915 -1.45952,-3.863451 -1.45952,-3.863451"
       id="path915"
       inkscape:connector-curvature="0"
       sodipodi:nodetypes="csssac" />
    <path
       style="opacity:1;fill:url(#linearGradient937);fill-opacity:1;stroke:none;stroke-width:0.16250014;stroke-miterlimit:4;stroke-dasharray:none;stroke-dashoffset:0;stroke-opacity:1"
       d="m 369.23342,428.95727 -82.65013,-92.2415 c 0.82139,-0.5281 10.33046,-4.59056 10.49289,-4.65061 0,0 41.35877,46.31196 72.07283,80.62947 39.33953,43.95493 55.92029,62.3732 56.10275,62.32012 0.14245,-0.0414 26.50612,-11.21728 58.58595,-24.83519 l 58.32695,-24.75985 0.4531,0.52666 c 0.7093,0.82446 1.8247,2.84185 2.3095,4.17716 0.33422,0.9206 0.45936,1.61181 0.51404,2.83928 0.089,1.99792 -0.13439,2.90272 -1.56808,6.35191 -0.81679,1.96505 -1.10498,2.49598 -1.43697,2.64724 -0.79845,0.3638 -117.00656,49.65229 -117.06584,49.65229 -0.0329,0 -25.29454,-28.19564 -56.13695,-62.65698 z"
       id="path919"
       inkscape:connector-curvature="0"
       transform="matrix(0.26458333,0,0,0.26458333,33.616472,-37.075217)"
       sodipodi:nodetypes="cccscscccsccscc" />
    <path
       style="opacity:1;fill:url(#linearGradient947);fill-opacity:1;stroke:none;stroke-width:0.45961982;stroke-miterlimit:4;stroke-dasharray:none;stroke-dashoffset:0;stroke-opacity:1"
       d="m 356.02505,396.06771 -69.12895,-77.23624 2.35942,-1.06813 c 7.30582,-3.30744 51.73638,-21.92078 99.6456,-41.74463 34.20359,-14.15274 32.47769,-13.46628 32.8395,-13.06162 0.17105,0.1913 1.16377,2.45105 2.20604,5.02165 3.67879,9.07318 4.65259,15.85256 4.89858,34.10299 0.10037,7.4456 0.29793,15.15356 0.43903,17.12878 1.20693,16.89547 10.39203,33.04316 29.80495,52.39802 14.7011,14.65713 28.01108,23.51334 68.29533,45.4424 l 13.66341,7.43779 -3.79712,1.62301 c -32.50273,13.89266 -110.49008,46.8648 -111.17905,47.0052 -0.73095,0.14895 -14.99053,-15.53614 -70.04674,-77.04922 z m 163.43232,25.52964 c 0,-0.1113 -0.20651,-0.20236 -0.4589,-0.20236 -0.25239,0 -0.4589,0.21869 -0.4589,0.48598 0,0.26729 0.20651,0.35835 0.4589,0.20236 0.25239,-0.15598 0.4589,-0.37468 0.4589,-0.48598 z"
       id="path939"
       inkscape:connector-curvature="0"
       transform="matrix(0.26458333,0,0,0.26458333,33.616472,-37.075217)" />
    <path
       style="opacity:1;fill:url(#linearGradient3672);fill-opacity:1;stroke:none;stroke-width:0.45961982;stroke-miterlimit:4;stroke-dasharray:none;stroke-dashoffset:0;stroke-opacity:1"
       d="m 554.68979,362.00036 c -11.97882,-1.14793 -21.71067,-3.10915 -31.5554,-6.35923 -40.96598,-13.52426 -61.86446,-44.2511 -49.01384,-72.06457 5.86323,-12.6902 18.95744,-24.0926 35.49742,-30.91105 l 3.34183,-1.37764 47.36631,51.65641 c 26.05146,28.41103 47.4233,51.80476 47.49298,51.98605 0.21178,0.5511 -10.33966,3.63998 -16.66348,4.87815 -8.77041,1.71721 -17.30074,2.49147 -26.59953,2.41432 -4.54308,-0.0377 -8.98291,-0.13779 -9.86629,-0.22244 z"
       id="path949"
       inkscape:connector-curvature="0"
       transform="matrix(0.26458333,0,0,0.26458333,33.616472,-37.075217)" />
    <path
       style="opacity:1;fill:url(#linearGradient991);fill-opacity:1;stroke:none;stroke-width:0.45961982;stroke-miterlimit:4;stroke-dasharray:none;stroke-dashoffset:0;stroke-opacity:1"
       d="m 545.82941,437.70666 c 1.41864,-3.87902 1.22558,-6.46142 -0.75668,-10.12126 -0.76612,-1.4145 -1.34212,-2.61385 -1.27999,-2.66523 0.95188,-0.78708 80.83164,-34.1583 81.08824,-33.87608 7.94553,8.73905 10.10908,11.37733 9.57284,11.67337 -0.50156,0.27689 -87.60136,37.28189 -89.24068,37.91457 -0.30105,0.11619 -0.036,-1.14173 0.61627,-2.92537 z"
       id="path961"
       inkscape:connector-curvature="0"
       transform="matrix(0.26458333,0,0,0.26458333,33.616472,-37.075217)" />
    <path
       style="opacity:1;fill:url(#linearGradient973);fill-opacity:1;stroke:none;stroke-width:0.22980991;stroke-miterlimit:4;stroke-dasharray:none;stroke-dashoffset:0;stroke-opacity:1"
       d="m 541.97091,423.56578 c -0.25239,-0.19528 -1.54304,-0.93513 -2.86811,-1.64411 -13.83131,-7.40051 -30.92661,-16.89303 -39.92405,-22.16867 -22.43241,-13.15319 -35.76591,-23.94499 -49.04582,-39.69644 -3.57025,-4.23471 -8.18465,-10.37236 -10.14866,-13.49882 -3.89717,-6.20378 -7.00202,-13.66407 -8.35233,-20.06885 -1.25714,-5.96285 -1.35715,-7.46486 -1.40339,-21.07693 -0.0513,-15.10251 -0.40093,-20.09284 -1.95431,-27.89518 -0.73921,-3.71287 -1.86209,-7.12283 -4.02298,-12.21693 l -1.44241,-3.40034 1.07164,-0.46051 c 1.40396,-0.60332 71.18581,-29.34378 71.39347,-29.40422 0.16713,-0.0487 16.75638,17.95683 16.75055,18.18055 -0.002,0.0709 -1.00855,0.5286 -2.23713,1.01702 -3.55948,1.4151 -9.32419,4.26765 -12.55894,6.21454 -15.32903,9.226 -24.67057,21.03625 -27.6849,35.00123 -0.45343,2.10068 -0.52113,3.08503 -0.52865,7.68653 -0.008,4.69338 0.0511,5.55659 0.53123,7.80125 2.01995,9.44356 6.68156,17.84017 14.23881,25.64729 16.61777,17.16721 43.84303,28.06209 74.3621,29.75786 16.58459,0.92152 34.53953,-1.45318 48.88217,-6.46509 l 2.18939,-0.76506 13.03067,14.214 c 12.58454,13.72736 13.01234,14.22352 12.49532,14.49192 -0.76982,0.39964 -91.55816,38.91702 -91.9706,39.01896 -0.1893,0.0468 -0.55068,-0.0747 -0.80307,-0.27 z"
       id="path965"
       inkscape:connector-curvature="0"
       transform="matrix(0.26458333,0,0,0.26458333,33.616472,-37.075217)" />
    <path
       style="fill:none;stroke:#000000;stroke-width:0.15;stroke-linecap:butt;stroke-linejoin:miter;stroke-opacity:1;stroke-miterlimit:4;stroke-dasharray:none"
       d="m 109.27292,47.233341 -0.034,-6.981213"
       id="path1287"
       inkscape:connector-curvature="0"
       sodipodi:nodetypes="cc" />
    <path
       style="fill:none;stroke:#000000;stroke-width:0.15;stroke-linecap:butt;stroke-linejoin:miter;stroke-opacity:1;stroke-miterlimit:4;stroke-dasharray:none"
       d="m 164.57083,24.214591 -0.034,-6.981213"
       id="path1287-1"
       inkscape:connector-curvature="0"
       sodipodi:nodetypes="cc" />
    <path
       style="fill:none;stroke:#000000;stroke-width:0.15000001;stroke-linecap:butt;stroke-linejoin:miter;stroke-miterlimit:4;stroke-dasharray:none;stroke-opacity:1;marker-start:url(#marker1569);marker-end:url(#marker1572)"
       d="M 109.60745,41.331998 164.19894,18.320845"
       id="path1304"
       inkscape:connector-curvature="0"
       sodipodi:nodetypes="cc" />
    <path
       style="fill:none;stroke:#000000;stroke-width:0.15;stroke-linecap:butt;stroke-linejoin:miter;stroke-opacity:1;stroke-miterlimit:4;stroke-dasharray:none;marker-end:url(#marker2043)"
       d="m 153.27247,81.073175 0.0607,4.128162"
       id="path2039"
       inkscape:connector-curvature="0" />
    <path
       style="fill:none;stroke:#000000;stroke-width:0.15000001;stroke-linecap:butt;stroke-linejoin:miter;stroke-miterlimit:4;stroke-dasharray:none;stroke-opacity:1"
       d="m 153.4132,90.07057 -0.062,-4.620745"
       id="path2045"
       inkscape:connector-curvature="0"
       sodipodi:nodetypes="cc" />
    <path
       style="fill:none;stroke:#000000;stroke-width:0.15;stroke-linecap:butt;stroke-linejoin:miter;stroke-opacity:1;stroke-miterlimit:4;stroke-dasharray:none;marker-end:url(#marker2051)"
       d="m 153.41564,93.85283 -0.003,-3.878307"
       id="path2047"
       inkscape:connector-curvature="0" />
    <path
       style="fill:none;stroke:#000000;stroke-width:0.15000001;stroke-linecap:butt;stroke-linejoin:miter;stroke-miterlimit:4;stroke-dasharray:0.15, 0.15;stroke-dashoffset:0;stroke-opacity:1"
       d="m 167.37772,81.747352 c 0,0 -4.56568,-3.679786 -6.86836,-5.494687 -4.83755,-3.812799 -11.72834,-7.620289 -14.59526,-11.332786 -3.17808,-4.115431 -4.92702,-13.165995 -5.15127,-14.72404 -0.20855,-1.449015 0.16595,-9.102337 1e-5,-10.860589 -0.15144,-1.604659 -1.37368,-4.63614 -1.37368,-4.63614"
       id="path2550"
       inkscape:connector-curvature="0"
       sodipodi:nodetypes="cssssc" />
    <path
       style="fill:#000000;stroke:#000000;stroke-width:0.26458332px;stroke-linecap:butt;stroke-linejoin:miter;stroke-opacity:1;fill-opacity:1"
       d="m 140.63405,47.834841 -0.60098,1.373672 1.15904,-0.04293 z"
       id="path2552"
       inkscape:connector-curvature="0" />
    <path
       style="fill:#000000;fill-opacity:1;stroke:#000000;stroke-width:0.26458332px;stroke-linecap:butt;stroke-linejoin:miter;stroke-opacity:1"
       d="m 155.0821,72.359373 0.93693,1.170607 0.50072,-1.046182 z"
       id="path2552-6"
       inkscape:connector-curvature="0" />
    <path
       style="fill:none;stroke:#000000;stroke-width:0.15000001;stroke-linecap:butt;stroke-linejoin:miter;stroke-miterlimit:4;stroke-dasharray:0.15, 0.15;stroke-dashoffset:0;stroke-opacity:1"
       d="m 184.57986,75.502857 c 0,0 -4.0693,-4.766419 -6.50411,-6.708855 -4.0426,-3.225097 -9.28061,-4.751386 -13.25968,-8.054538 -3.98476,-3.307869 -8.72581,-7.139732 -10.37218,-11.567211 -1.64637,-4.427479 0.19196,-9.390705 0.24284,-12.803253 0.0509,-3.412548 -1.67724,-7.12518 -1.67724,-7.12518"
       id="path2550-2"
       inkscape:connector-curvature="0"
       sodipodi:nodetypes="caazzc" />
    <path
       style="fill:#000000;fill-opacity:1;stroke:#000000;stroke-width:0.26458332px;stroke-linecap:butt;stroke-linejoin:miter;stroke-opacity:1"
       d="m 153.97617,41.638396 -0.76107,1.291865 1.15584,0.09611 z"
       id="path2552-3"
       inkscape:connector-curvature="0" />
    <path
       style="fill:#000000;fill-opacity:1;stroke:#000000;stroke-width:0.26458332px;stroke-linecap:butt;stroke-linejoin:miter;stroke-opacity:1"
       d="m 174.73975,66.51466 0.72247,1.313842 0.67259,-0.944906 z"
       id="path2552-2"
       inkscape:connector-curvature="0"
       inkscape:transform-center-x="0.40622934"
       inkscape:transform-center-y="0.62314603" />
    <g
       style="display:inline"
       id="g5725"
       transform="matrix(0.63999999,0,0,0.63999999,53.078573,25.07645)">
      <path
         inkscape:connector-curvature="0"
         id="path5396"
         d="m 232.75251,69.284024 -8.31554,3.610316"
         style="fill:none;stroke:#000000;stroke-width:0.26458332px;stroke-linecap:butt;stroke-linejoin:miter;stroke-opacity:1;marker-end:url(#marker5720)" />
      <path
         inkscape:connector-curvature="0"
         id="path5398"
         d="M 232.67739,69.388659 V 56.688651"
         style="fill:none;stroke:#000000;stroke-width:0.26458332px;stroke-linecap:butt;stroke-linejoin:miter;stroke-opacity:1;marker-end:url(#Arrow1Lend)" />
      <path
         inkscape:connector-curvature="0"
         id="path5400"
         d="m 232.67739,69.388659 -6.61571,-7.256463"
         style="fill:none;stroke:#000000;stroke-width:0.26458332px;stroke-linecap:butt;stroke-linejoin:miter;stroke-opacity:1;marker-end:url(#marker5716)" />
    </g>
  </g>
  <g
     inkscape:groupmode="layer"
     id="layer2"
     inkscape:label="Latex"
     style="display:none">
    <text
       xml:space="preserve"
       style="font-style:normal;font-variant:normal;font-weight:normal;font-stretch:normal;font-size:3.52777767px;line-height:1.25;font-family:'Cambria Math';-inkscape-font-specification:'Cambria Math';letter-spacing:0px;word-spacing:0px;fill:#000000;fill-opacity:1;stroke:none;stroke-width:0.26458332"
       x="171.10793"
       y="96.929688"
       id="text5760"><tspan
         sodipodi:role="line"
         id="tspan5758"
         x="171.10793"
         y="96.929688"
         style="stroke-width:0.26458332">$x$</tspan></text>
    <text
       xml:space="preserve"
       style="font-style:normal;font-variant:normal;font-weight:normal;font-stretch:normal;font-size:3.52777767px;line-height:1.25;font-family:'Cambria Math';-inkscape-font-specification:'Cambria Math';letter-spacing:0px;word-spacing:0px;display:inline;fill:#000000;fill-opacity:1;stroke:none;stroke-width:0.26458332"
       x="172.23453"
       y="104.63715"
       id="text5760-4"><tspan
         sodipodi:role="line"
         id="tspan5758-8"
         x="172.23453"
         y="104.63715"
         style="stroke-width:0.26458332">$y$</tspan></text>
    <text
       xml:space="preserve"
       style="font-style:normal;font-variant:normal;font-weight:normal;font-stretch:normal;font-size:3.52777767px;line-height:1.25;font-family:'Cambria Math';-inkscape-font-specification:'Cambria Math';letter-spacing:0px;word-spacing:0px;display:inline;fill:#000000;fill-opacity:1;stroke:none;stroke-width:0.26458332"
       x="180.90582"
       y="89.784325"
       id="text5760-5"><tspan
         sodipodi:role="line"
         id="tspan5758-1"
         x="180.90582"
         y="89.784325"
         style="stroke-width:0.26458332">$z$</tspan></text>
    <text
       transform="translate(-33.616471,37.075216)"
       xml:space="preserve"
       style="font-style:normal;font-variant:normal;font-weight:normal;font-stretch:normal;font-size:3.52777767px;line-height:1.25;font-family:'Cambria Math';-inkscape-font-specification:'Cambria Math';letter-spacing:0px;word-spacing:0px;fill:#000000;fill-opacity:1;stroke:none;stroke-width:0.26458332"
       x="123.82896"
       y="54.543655"
       id="text1019"><tspan
         sodipodi:role="line"
         id="tspan1017"
         x="123.82896"
         y="54.543655"
         style="stroke-width:0.26458332">Fluid $o$</tspan></text>
    <text
       xml:space="preserve"
       style="font-style:normal;font-variant:normal;font-weight:normal;font-stretch:normal;font-size:3.52777767px;line-height:1.25;font-family:'Cambria Math';-inkscape-font-specification:'Cambria Math';letter-spacing:0px;word-spacing:0px;display:inline;fill:#000000;fill-opacity:1;stroke:none;stroke-width:0.26458332"
       x="142.34277"
       y="102.39331"
       id="text1019-9"><tspan
         sodipodi:role="line"
         id="tspan1017-9"
         x="142.34277"
         y="102.39331"
         style="stroke-width:0.26458332">Fluid $w$</tspan></text>
    <text
       transform="translate(-33.616471,37.075216)"
       xml:space="preserve"
       style="font-style:normal;font-variant:normal;font-weight:normal;font-stretch:normal;font-size:3.52777767px;line-height:1.25;font-family:'Cambria Math';-inkscape-font-specification:'Cambria Math';letter-spacing:0px;word-spacing:0px;fill:#000000;fill-opacity:1;stroke:none;stroke-width:0.26458332"
       x="155.15442"
       y="45.680256"
       id="text1580"><tspan
         sodipodi:role="line"
         id="tspan1578"
         x="155.15442"
         y="45.680256"
         style="stroke-width:0.26458332">$ \color{red} \Gamma_{wc} $</tspan></text>
    <text
       transform="translate(-33.616471,37.075216)"
       xml:space="preserve"
       style="font-style:normal;font-variant:normal;font-weight:normal;font-stretch:normal;font-size:3.52777767px;line-height:1.25;font-family:'Cambria Math';-inkscape-font-specification:'Cambria Math';letter-spacing:0px;word-spacing:0px;fill:#000000;fill-opacity:1;stroke:none;stroke-width:0.26458332"
       x="131.59962"
       y="29.410439"
       id="text1576"><tspan
         sodipodi:role="line"
         id="tspan1574"
         x="131.59962"
         y="29.410439"
         style="stroke-width:0.26458332">$l$</tspan></text>
    <text
       xml:space="preserve"
       style="font-style:normal;font-variant:normal;font-weight:normal;font-stretch:normal;font-size:3.52777767px;line-height:1.25;font-family:'Cambria Math';-inkscape-font-specification:'Cambria Math';letter-spacing:0px;word-spacing:0px;display:inline;fill:#000000;fill-opacity:1;stroke:none;stroke-width:0.26458332"
       x="109.3679"
       y="110.81612"
       id="text1580-8"><tspan
         sodipodi:role="line"
         id="tspan1578-2"
         x="109.3679"
         y="110.81612"
         style="stroke-width:0.26458332">$ \color{blue} \Gamma_{ow} $</tspan></text>
    <text
       transform="translate(-33.616471,37.075216)"
       xml:space="preserve"
       style="font-style:normal;font-variant:normal;font-weight:normal;font-stretch:normal;font-size:3.52777767px;line-height:1.25;font-family:'Cambria Math';-inkscape-font-specification:'Cambria Math';letter-spacing:0px;word-spacing:0px;fill:#000000;fill-opacity:1;stroke:none;stroke-width:0.26458332"
       x="147.26236"
       y="81.862389"
       id="text2055"><tspan
         sodipodi:role="line"
         id="tspan2053"
         x="147.26236"
         y="81.862389"
         style="stroke-width:0.26458332">$h$</tspan></text>
    <text
       transform="translate(-33.616471,37.075216)"
       xml:space="preserve"
       style="font-style:normal;font-variant:normal;font-weight:normal;font-stretch:normal;font-size:3.52777767px;line-height:1.25;font-family:'Cambria Math';-inkscape-font-specification:'Cambria Math';letter-spacing:0px;word-spacing:0px;fill:#000000;fill-opacity:1;stroke:none;stroke-width:0.26458332"
       x="164.28696"
       y="43.799683"
       id="text3676"><tspan
         sodipodi:role="line"
         id="tspan3674"
         x="164.28696"
         y="43.799683"
         style="stroke-width:0.26458332">Cylinder</tspan></text>
  </g>
  <g
     style="display:inline"
     inkscape:label="Rendered Latex"
     inkscape:groupmode="layer"
     id="ltx-render-layer"
     rendltx:preamble=""
     rendltx:packages="amsmath,amssymb,xcolor"
     rendltx:scale="1.0"
     rendltx:depth="0"
     rendltx:fontsize="10"
     rendltx:newline="False"
     rendltx:math="False">
    <g
       id="lx-text5760"
       transform="matrix(0.352778,0,0,0.352778,161.6582,103.66696)">
      <defs
         id="defs3818">
        <g
           id="g3816">
          <symbol
             id="lx-text5760-glyph0-0"
             overflow="visible">
            <path
               id="path3810"
               d=""
               style="stroke:none;" />
          </symbol>
          <symbol
             id="lx-text5760-glyph0-1"
             overflow="visible">
            <path
               id="path3813"
               d="M 3.328125 -3.015625 C 3.390625 -3.265625 3.625 -4.1875 4.3125 -4.1875 C 4.359375 -4.1875 4.609375 -4.1875 4.8125 -4.0625 C 4.53125 -4 4.34375 -3.765625 4.34375 -3.515625 C 4.34375 -3.359375 4.453125 -3.171875 4.71875 -3.171875 C 4.9375 -3.171875 5.25 -3.34375 5.25 -3.75 C 5.25 -4.265625 4.671875 -4.40625 4.328125 -4.40625 C 3.75 -4.40625 3.40625 -3.875 3.28125 -3.65625 C 3.03125 -4.3125 2.5 -4.40625 2.203125 -4.40625 C 1.171875 -4.40625 0.59375 -3.125 0.59375 -2.875 C 0.59375 -2.765625 0.703125 -2.765625 0.71875 -2.765625 C 0.796875 -2.765625 0.828125 -2.796875 0.84375 -2.875 C 1.1875 -3.9375 1.84375 -4.1875 2.1875 -4.1875 C 2.375 -4.1875 2.71875 -4.09375 2.71875 -3.515625 C 2.71875 -3.203125 2.546875 -2.546875 2.1875 -1.140625 C 2.03125 -0.53125 1.671875 -0.109375 1.234375 -0.109375 C 1.171875 -0.109375 0.953125 -0.109375 0.734375 -0.234375 C 0.984375 -0.296875 1.203125 -0.5 1.203125 -0.78125 C 1.203125 -1.046875 0.984375 -1.125 0.84375 -1.125 C 0.53125 -1.125 0.296875 -0.875 0.296875 -0.546875 C 0.296875 -0.09375 0.78125 0.109375 1.21875 0.109375 C 1.890625 0.109375 2.25 -0.59375 2.265625 -0.640625 C 2.390625 -0.28125 2.75 0.109375 3.34375 0.109375 C 4.375 0.109375 4.9375 -1.171875 4.9375 -1.421875 C 4.9375 -1.53125 4.859375 -1.53125 4.828125 -1.53125 C 4.734375 -1.53125 4.71875 -1.484375 4.6875 -1.421875 C 4.359375 -0.34375 3.6875 -0.109375 3.375 -0.109375 C 2.984375 -0.109375 2.828125 -0.421875 2.828125 -0.765625 C 2.828125 -0.984375 2.875 -1.203125 2.984375 -1.640625 Z M 3.328125 -3.015625 "
               style="stroke:none;" />
          </symbol>
        </g>
      </defs>
      <g
         id="lx-text5760-surface1">
        <g
           id="g3822"
           style="fill:rgb(0%,0%,0%);fill-opacity:1;">
          <use
             id="use3820"
             y="0.0"
             x="0.0"
             xlink:href="#lx-text5760-glyph0-1" />
        </g>
      </g>
    </g>
    <g
       id="lx-text5760-4"
       transform="matrix(0.352778,0,0,0.352778,165.89084,110.71346)">
      <defs
         id="defs3834">
        <g
           id="g3832">
          <symbol
             id="lx-text5760-4-glyph0-0"
             overflow="visible">
            <path
               id="path3826"
               d=""
               style="stroke:none;" />
          </symbol>
          <symbol
             id="lx-text5760-4-glyph0-1"
             overflow="visible">
            <path
               id="path3829"
               d="M 4.84375 -3.796875 C 4.890625 -3.9375 4.890625 -3.953125 4.890625 -4.03125 C 4.890625 -4.203125 4.75 -4.296875 4.59375 -4.296875 C 4.5 -4.296875 4.34375 -4.234375 4.25 -4.09375 C 4.234375 -4.03125 4.140625 -3.734375 4.109375 -3.546875 C 4.03125 -3.296875 3.96875 -3.015625 3.90625 -2.75 L 3.453125 -0.953125 C 3.421875 -0.8125 2.984375 -0.109375 2.328125 -0.109375 C 1.828125 -0.109375 1.71875 -0.546875 1.71875 -0.921875 C 1.71875 -1.375 1.890625 -2 2.21875 -2.875 C 2.375 -3.28125 2.421875 -3.390625 2.421875 -3.59375 C 2.421875 -4.03125 2.109375 -4.40625 1.609375 -4.40625 C 0.65625 -4.40625 0.296875 -2.953125 0.296875 -2.875 C 0.296875 -2.765625 0.390625 -2.765625 0.40625 -2.765625 C 0.515625 -2.765625 0.515625 -2.796875 0.5625 -2.953125 C 0.84375 -3.890625 1.234375 -4.1875 1.578125 -4.1875 C 1.65625 -4.1875 1.828125 -4.1875 1.828125 -3.875 C 1.828125 -3.625 1.71875 -3.359375 1.65625 -3.171875 C 1.25 -2.109375 1.078125 -1.546875 1.078125 -1.078125 C 1.078125 -0.1875 1.703125 0.109375 2.296875 0.109375 C 2.6875 0.109375 3.015625 -0.0625 3.296875 -0.34375 C 3.171875 0.171875 3.046875 0.671875 2.65625 1.203125 C 2.390625 1.53125 2.015625 1.828125 1.5625 1.828125 C 1.421875 1.828125 0.96875 1.796875 0.796875 1.40625 C 0.953125 1.40625 1.09375 1.40625 1.21875 1.28125 C 1.328125 1.203125 1.421875 1.0625 1.421875 0.875 C 1.421875 0.5625 1.15625 0.53125 1.0625 0.53125 C 0.828125 0.53125 0.5 0.6875 0.5 1.171875 C 0.5 1.671875 0.9375 2.046875 1.5625 2.046875 C 2.578125 2.046875 3.609375 1.140625 3.890625 0.015625 Z M 4.84375 -3.796875 "
               style="stroke:none;" />
          </symbol>
        </g>
      </defs>
      <g
         id="lx-text5760-4-surface1">
        <g
           id="g3838"
           style="fill:rgb(0%,0%,0%);fill-opacity:1;">
          <use
             id="use3836"
             y="0.0"
             x="0.0"
             xlink:href="#lx-text5760-4-glyph0-1" />
        </g>
      </g>
    </g>
    <g
       id="lx-text5760-5"
       transform="matrix(0.352778,0,0,0.352778,169.51687,99.089432)">
      <defs
         id="defs3850">
        <g
           id="g3848">
          <symbol
             id="lx-text5760-5-glyph0-0"
             overflow="visible">
            <path
               id="path3842"
               d=""
               style="stroke:none;" />
          </symbol>
          <symbol
             id="lx-text5760-5-glyph0-1"
             overflow="visible">
            <path
               id="path3845"
               d="M 1.328125 -0.828125 C 1.859375 -1.40625 2.15625 -1.65625 2.515625 -1.96875 C 2.515625 -1.96875 3.125 -2.5 3.484375 -2.859375 C 4.4375 -3.78125 4.65625 -4.265625 4.65625 -4.3125 C 4.65625 -4.40625 4.5625 -4.40625 4.546875 -4.40625 C 4.46875 -4.40625 4.453125 -4.390625 4.390625 -4.296875 C 4.09375 -3.8125 3.890625 -3.65625 3.65625 -3.65625 C 3.40625 -3.65625 3.296875 -3.8125 3.140625 -3.984375 C 2.953125 -4.203125 2.78125 -4.40625 2.453125 -4.40625 C 1.703125 -4.40625 1.25 -3.484375 1.25 -3.265625 C 1.25 -3.21875 1.28125 -3.15625 1.359375 -3.15625 C 1.453125 -3.15625 1.46875 -3.203125 1.5 -3.265625 C 1.6875 -3.734375 2.265625 -3.734375 2.34375 -3.734375 C 2.546875 -3.734375 2.734375 -3.671875 2.96875 -3.59375 C 3.375 -3.4375 3.484375 -3.4375 3.734375 -3.4375 C 3.375 -3.015625 2.546875 -2.296875 2.359375 -2.140625 L 1.453125 -1.296875 C 0.78125 -0.625 0.421875 -0.0625 0.421875 0.015625 C 0.421875 0.109375 0.53125 0.109375 0.546875 0.109375 C 0.625 0.109375 0.640625 0.09375 0.703125 -0.015625 C 0.9375 -0.375 1.234375 -0.640625 1.5625 -0.640625 C 1.78125 -0.640625 1.890625 -0.546875 2.140625 -0.265625 C 2.296875 -0.046875 2.484375 0.109375 2.765625 0.109375 C 3.765625 0.109375 4.34375 -1.15625 4.34375 -1.421875 C 4.34375 -1.46875 4.296875 -1.53125 4.21875 -1.53125 C 4.125 -1.53125 4.109375 -1.46875 4.078125 -1.390625 C 3.84375 -0.75 3.203125 -0.5625 2.875 -0.5625 C 2.6875 -0.5625 2.5 -0.625 2.296875 -0.6875 C 1.953125 -0.8125 1.796875 -0.859375 1.59375 -0.859375 C 1.578125 -0.859375 1.421875 -0.859375 1.328125 -0.828125 Z M 1.328125 -0.828125 "
               style="stroke:none;" />
          </symbol>
        </g>
      </defs>
      <g
         id="lx-text5760-5-surface1">
        <g
           id="g3854"
           style="fill:rgb(0%,0%,0%);fill-opacity:1;">
          <use
             id="use3852"
             y="0.0"
             x="0.0"
             xlink:href="#lx-text5760-5-glyph0-1" />
        </g>
      </g>
    </g>
    <g
       id="lx-text1019"
       transform="matrix(0.352778,0,0,0.352778,91.790904,92.954453)">
      <defs
         id="defs3884">
        <g
           id="g3882">
          <symbol
             id="lx-text1019-glyph0-0"
             overflow="visible">
            <path
               id="path3858"
               d=""
               style="stroke:none;" />
          </symbol>
          <symbol
             id="lx-text1019-glyph0-1"
             overflow="visible">
            <path
               id="path3861"
               d="M 5.796875 -6.78125 L 0.328125 -6.78125 L 0.328125 -6.46875 L 0.5625 -6.46875 C 1.328125 -6.46875 1.359375 -6.359375 1.359375 -6 L 1.359375 -0.78125 C 1.359375 -0.421875 1.328125 -0.3125 0.5625 -0.3125 L 0.328125 -0.3125 L 0.328125 0 C 0.671875 -0.03125 1.453125 -0.03125 1.84375 -0.03125 C 2.25 -0.03125 3.15625 -0.03125 3.515625 0 L 3.515625 -0.3125 L 3.1875 -0.3125 C 2.25 -0.3125 2.25 -0.4375 2.25 -0.78125 L 2.25 -3.234375 L 3.09375 -3.234375 C 4.0625 -3.234375 4.15625 -2.921875 4.15625 -2.078125 L 4.40625 -2.078125 L 4.40625 -4.71875 L 4.15625 -4.71875 C 4.15625 -3.875 4.0625 -3.546875 3.09375 -3.546875 L 2.25 -3.546875 L 2.25 -6.078125 C 2.25 -6.40625 2.265625 -6.46875 2.734375 -6.46875 L 3.921875 -6.46875 C 5.421875 -6.46875 5.671875 -5.90625 5.828125 -4.53125 L 6.078125 -4.53125 Z M 5.796875 -6.78125 "
               style="stroke:none;" />
          </symbol>
          <symbol
             id="lx-text1019-glyph0-2"
             overflow="visible">
            <path
               id="path3864"
               d="M 1.765625 -6.921875 L 0.328125 -6.8125 L 0.328125 -6.5 C 1.03125 -6.5 1.109375 -6.4375 1.109375 -5.9375 L 1.109375 -0.75 C 1.109375 -0.3125 1 -0.3125 0.328125 -0.3125 L 0.328125 0 C 0.65625 -0.015625 1.1875 -0.03125 1.4375 -0.03125 C 1.6875 -0.03125 2.171875 -0.015625 2.546875 0 L 2.546875 -0.3125 C 1.875 -0.3125 1.765625 -0.3125 1.765625 -0.75 Z M 1.765625 -6.921875 "
               style="stroke:none;" />
          </symbol>
          <symbol
             id="lx-text1019-glyph0-3"
             overflow="visible">
            <path
               id="path3867"
               d="M 3.890625 -0.78125 L 3.890625 0.109375 L 5.328125 0 L 5.328125 -0.3125 C 4.640625 -0.3125 4.5625 -0.375 4.5625 -0.875 L 4.5625 -4.40625 L 3.09375 -4.296875 L 3.09375 -3.984375 C 3.78125 -3.984375 3.875 -3.921875 3.875 -3.421875 L 3.875 -1.65625 C 3.875 -0.78125 3.390625 -0.109375 2.65625 -0.109375 C 1.828125 -0.109375 1.78125 -0.578125 1.78125 -1.09375 L 1.78125 -4.40625 L 0.3125 -4.296875 L 0.3125 -3.984375 C 1.09375 -3.984375 1.09375 -3.953125 1.09375 -3.078125 L 1.09375 -1.578125 C 1.09375 -0.796875 1.09375 0.109375 2.609375 0.109375 C 3.171875 0.109375 3.609375 -0.171875 3.890625 -0.78125 Z M 3.890625 -0.78125 "
               style="stroke:none;" />
          </symbol>
          <symbol
             id="lx-text1019-glyph0-4"
             overflow="visible">
            <path
               id="path3870"
               d="M 1.765625 -4.40625 L 0.375 -4.296875 L 0.375 -3.984375 C 1.015625 -3.984375 1.109375 -3.921875 1.109375 -3.4375 L 1.109375 -0.75 C 1.109375 -0.3125 1 -0.3125 0.328125 -0.3125 L 0.328125 0 C 0.640625 -0.015625 1.1875 -0.03125 1.421875 -0.03125 C 1.78125 -0.03125 2.125 -0.015625 2.46875 0 L 2.46875 -0.3125 C 1.796875 -0.3125 1.765625 -0.359375 1.765625 -0.75 Z M 1.796875 -6.140625 C 1.796875 -6.453125 1.5625 -6.671875 1.28125 -6.671875 C 0.96875 -6.671875 0.75 -6.40625 0.75 -6.140625 C 0.75 -5.875 0.96875 -5.609375 1.28125 -5.609375 C 1.5625 -5.609375 1.796875 -5.828125 1.796875 -6.140625 Z M 1.796875 -6.140625 "
               style="stroke:none;" />
          </symbol>
          <symbol
             id="lx-text1019-glyph0-5"
             overflow="visible">
            <path
               id="path3873"
               d="M 3.78125 -0.546875 L 3.78125 0.109375 L 5.25 0 L 5.25 -0.3125 C 4.5625 -0.3125 4.46875 -0.375 4.46875 -0.875 L 4.46875 -6.921875 L 3.046875 -6.8125 L 3.046875 -6.5 C 3.734375 -6.5 3.8125 -6.4375 3.8125 -5.9375 L 3.8125 -3.78125 C 3.53125 -4.140625 3.09375 -4.40625 2.5625 -4.40625 C 1.390625 -4.40625 0.34375 -3.421875 0.34375 -2.140625 C 0.34375 -0.875 1.3125 0.109375 2.453125 0.109375 C 3.09375 0.109375 3.53125 -0.234375 3.78125 -0.546875 Z M 3.78125 -3.21875 L 3.78125 -1.171875 C 3.78125 -1 3.78125 -0.984375 3.671875 -0.8125 C 3.375 -0.328125 2.9375 -0.109375 2.5 -0.109375 C 2.046875 -0.109375 1.6875 -0.375 1.453125 -0.75 C 1.203125 -1.15625 1.171875 -1.71875 1.171875 -2.140625 C 1.171875 -2.5 1.1875 -3.09375 1.46875 -3.546875 C 1.6875 -3.859375 2.0625 -4.1875 2.609375 -4.1875 C 2.953125 -4.1875 3.375 -4.03125 3.671875 -3.59375 C 3.78125 -3.421875 3.78125 -3.40625 3.78125 -3.21875 Z M 3.78125 -3.21875 "
               style="stroke:none;" />
          </symbol>
          <symbol
             id="lx-text1019-glyph1-0"
             overflow="visible">
            <path
               id="path3876"
               d=""
               style="stroke:none;" />
          </symbol>
          <symbol
             id="lx-text1019-glyph1-1"
             overflow="visible">
            <path
               id="path3879"
               d="M 4.671875 -2.71875 C 4.671875 -3.765625 3.984375 -4.40625 3.078125 -4.40625 C 1.75 -4.40625 0.40625 -2.984375 0.40625 -1.578125 C 0.40625 -0.59375 1.078125 0.109375 2 0.109375 C 3.328125 0.109375 4.671875 -1.265625 4.671875 -2.71875 Z M 2.015625 -0.109375 C 1.578125 -0.109375 1.140625 -0.421875 1.140625 -1.203125 C 1.140625 -1.6875 1.40625 -2.765625 1.71875 -3.265625 C 2.21875 -4.03125 2.796875 -4.1875 3.078125 -4.1875 C 3.65625 -4.1875 3.953125 -3.703125 3.953125 -3.109375 C 3.953125 -2.71875 3.75 -1.671875 3.375 -1.03125 C 3.015625 -0.453125 2.46875 -0.109375 2.015625 -0.109375 Z M 2.015625 -0.109375 "
               style="stroke:none;" />
          </symbol>
        </g>
      </defs>
      <g
         id="lx-text1019-surface1">
        <g
           id="g3896"
           style="fill:rgb(0%,0%,0%);fill-opacity:1;">
          <use
             id="use3886"
             y="0.0"
             x="0.0"
             xlink:href="#lx-text1019-glyph0-1" />
          <use
             id="use3888"
             y="0.0"
             x="6.503585"
             xlink:href="#lx-text1019-glyph0-2" />
          <use
             id="use3890"
             y="0.0"
             x="9.271196"
             xlink:href="#lx-text1019-glyph0-3" />
          <use
             id="use3892"
             y="0.0"
             x="14.806416"
             xlink:href="#lx-text1019-glyph0-4" />
          <use
             id="use3894"
             y="0.0"
             x="17.574026"
             xlink:href="#lx-text1019-glyph0-5" />
        </g>
        <g
           id="g3900"
           style="fill:rgb(0%,0%,0%);fill-opacity:1;">
          <use
             id="use3898"
             y="0.0"
             x="26.429"
             xlink:href="#lx-text1019-glyph1-1" />
        </g>
      </g>
    </g>
    <g
       id="lx-text1019-9"
       transform="matrix(0.352778,0,0,0.352778,146.03704,103.63694)">
      <defs
         id="defs3930">
        <g
           id="g3928">
          <symbol
             id="lx-text1019-9-glyph0-0"
             overflow="visible">
            <path
               id="path3904"
               d=""
               style="stroke:none;" />
          </symbol>
          <symbol
             id="lx-text1019-9-glyph0-1"
             overflow="visible">
            <path
               id="path3907"
               d="M 5.796875 -6.78125 L 0.328125 -6.78125 L 0.328125 -6.46875 L 0.5625 -6.46875 C 1.328125 -6.46875 1.359375 -6.359375 1.359375 -6 L 1.359375 -0.78125 C 1.359375 -0.421875 1.328125 -0.3125 0.5625 -0.3125 L 0.328125 -0.3125 L 0.328125 0 C 0.671875 -0.03125 1.453125 -0.03125 1.84375 -0.03125 C 2.25 -0.03125 3.15625 -0.03125 3.515625 0 L 3.515625 -0.3125 L 3.1875 -0.3125 C 2.25 -0.3125 2.25 -0.4375 2.25 -0.78125 L 2.25 -3.234375 L 3.09375 -3.234375 C 4.0625 -3.234375 4.15625 -2.921875 4.15625 -2.078125 L 4.40625 -2.078125 L 4.40625 -4.71875 L 4.15625 -4.71875 C 4.15625 -3.875 4.0625 -3.546875 3.09375 -3.546875 L 2.25 -3.546875 L 2.25 -6.078125 C 2.25 -6.40625 2.265625 -6.46875 2.734375 -6.46875 L 3.921875 -6.46875 C 5.421875 -6.46875 5.671875 -5.90625 5.828125 -4.53125 L 6.078125 -4.53125 Z M 5.796875 -6.78125 "
               style="stroke:none;" />
          </symbol>
          <symbol
             id="lx-text1019-9-glyph0-2"
             overflow="visible">
            <path
               id="path3910"
               d="M 1.765625 -6.921875 L 0.328125 -6.8125 L 0.328125 -6.5 C 1.03125 -6.5 1.109375 -6.4375 1.109375 -5.9375 L 1.109375 -0.75 C 1.109375 -0.3125 1 -0.3125 0.328125 -0.3125 L 0.328125 0 C 0.65625 -0.015625 1.1875 -0.03125 1.4375 -0.03125 C 1.6875 -0.03125 2.171875 -0.015625 2.546875 0 L 2.546875 -0.3125 C 1.875 -0.3125 1.765625 -0.3125 1.765625 -0.75 Z M 1.765625 -6.921875 "
               style="stroke:none;" />
          </symbol>
          <symbol
             id="lx-text1019-9-glyph0-3"
             overflow="visible">
            <path
               id="path3913"
               d="M 3.890625 -0.78125 L 3.890625 0.109375 L 5.328125 0 L 5.328125 -0.3125 C 4.640625 -0.3125 4.5625 -0.375 4.5625 -0.875 L 4.5625 -4.40625 L 3.09375 -4.296875 L 3.09375 -3.984375 C 3.78125 -3.984375 3.875 -3.921875 3.875 -3.421875 L 3.875 -1.65625 C 3.875 -0.78125 3.390625 -0.109375 2.65625 -0.109375 C 1.828125 -0.109375 1.78125 -0.578125 1.78125 -1.09375 L 1.78125 -4.40625 L 0.3125 -4.296875 L 0.3125 -3.984375 C 1.09375 -3.984375 1.09375 -3.953125 1.09375 -3.078125 L 1.09375 -1.578125 C 1.09375 -0.796875 1.09375 0.109375 2.609375 0.109375 C 3.171875 0.109375 3.609375 -0.171875 3.890625 -0.78125 Z M 3.890625 -0.78125 "
               style="stroke:none;" />
          </symbol>
          <symbol
             id="lx-text1019-9-glyph0-4"
             overflow="visible">
            <path
               id="path3916"
               d="M 1.765625 -4.40625 L 0.375 -4.296875 L 0.375 -3.984375 C 1.015625 -3.984375 1.109375 -3.921875 1.109375 -3.4375 L 1.109375 -0.75 C 1.109375 -0.3125 1 -0.3125 0.328125 -0.3125 L 0.328125 0 C 0.640625 -0.015625 1.1875 -0.03125 1.421875 -0.03125 C 1.78125 -0.03125 2.125 -0.015625 2.46875 0 L 2.46875 -0.3125 C 1.796875 -0.3125 1.765625 -0.359375 1.765625 -0.75 Z M 1.796875 -6.140625 C 1.796875 -6.453125 1.5625 -6.671875 1.28125 -6.671875 C 0.96875 -6.671875 0.75 -6.40625 0.75 -6.140625 C 0.75 -5.875 0.96875 -5.609375 1.28125 -5.609375 C 1.5625 -5.609375 1.796875 -5.828125 1.796875 -6.140625 Z M 1.796875 -6.140625 "
               style="stroke:none;" />
          </symbol>
          <symbol
             id="lx-text1019-9-glyph0-5"
             overflow="visible">
            <path
               id="path3919"
               d="M 3.78125 -0.546875 L 3.78125 0.109375 L 5.25 0 L 5.25 -0.3125 C 4.5625 -0.3125 4.46875 -0.375 4.46875 -0.875 L 4.46875 -6.921875 L 3.046875 -6.8125 L 3.046875 -6.5 C 3.734375 -6.5 3.8125 -6.4375 3.8125 -5.9375 L 3.8125 -3.78125 C 3.53125 -4.140625 3.09375 -4.40625 2.5625 -4.40625 C 1.390625 -4.40625 0.34375 -3.421875 0.34375 -2.140625 C 0.34375 -0.875 1.3125 0.109375 2.453125 0.109375 C 3.09375 0.109375 3.53125 -0.234375 3.78125 -0.546875 Z M 3.78125 -3.21875 L 3.78125 -1.171875 C 3.78125 -1 3.78125 -0.984375 3.671875 -0.8125 C 3.375 -0.328125 2.9375 -0.109375 2.5 -0.109375 C 2.046875 -0.109375 1.6875 -0.375 1.453125 -0.75 C 1.203125 -1.15625 1.171875 -1.71875 1.171875 -2.140625 C 1.171875 -2.5 1.1875 -3.09375 1.46875 -3.546875 C 1.6875 -3.859375 2.0625 -4.1875 2.609375 -4.1875 C 2.953125 -4.1875 3.375 -4.03125 3.671875 -3.59375 C 3.78125 -3.421875 3.78125 -3.40625 3.78125 -3.21875 Z M 3.78125 -3.21875 "
               style="stroke:none;" />
          </symbol>
          <symbol
             id="lx-text1019-9-glyph1-0"
             overflow="visible">
            <path
               id="path3922"
               d=""
               style="stroke:none;" />
          </symbol>
          <symbol
             id="lx-text1019-9-glyph1-1"
             overflow="visible">
            <path
               id="path3925"
               d="M 4.609375 -3.375 C 4.65625 -3.59375 4.75 -3.96875 4.75 -4.03125 C 4.75 -4.203125 4.609375 -4.296875 4.46875 -4.296875 C 4.34375 -4.296875 4.171875 -4.21875 4.09375 -4.015625 C 4.0625 -3.953125 3.59375 -2.046875 3.53125 -1.78125 C 3.453125 -1.484375 3.4375 -1.3125 3.4375 -1.125 C 3.4375 -1.015625 3.4375 -1 3.453125 -0.953125 C 3.21875 -0.421875 2.921875 -0.109375 2.53125 -0.109375 C 1.734375 -0.109375 1.734375 -0.84375 1.734375 -1.015625 C 1.734375 -1.328125 1.78125 -1.71875 2.25 -2.953125 C 2.359375 -3.25 2.421875 -3.390625 2.421875 -3.59375 C 2.421875 -4.03125 2.09375 -4.40625 1.609375 -4.40625 C 0.65625 -4.40625 0.296875 -2.953125 0.296875 -2.875 C 0.296875 -2.765625 0.390625 -2.765625 0.40625 -2.765625 C 0.515625 -2.765625 0.515625 -2.796875 0.5625 -2.953125 C 0.84375 -3.875 1.21875 -4.1875 1.578125 -4.1875 C 1.671875 -4.1875 1.828125 -4.171875 1.828125 -3.859375 C 1.828125 -3.609375 1.71875 -3.328125 1.640625 -3.15625 C 1.203125 -1.984375 1.09375 -1.53125 1.09375 -1.140625 C 1.09375 -0.234375 1.75 0.109375 2.5 0.109375 C 2.671875 0.109375 3.140625 0.109375 3.53125 -0.59375 C 3.796875 0.046875 4.484375 0.109375 4.78125 0.109375 C 5.53125 0.109375 5.96875 -0.515625 6.234375 -1.109375 C 6.5625 -1.890625 6.890625 -3.234375 6.890625 -3.703125 C 6.890625 -4.25 6.625 -4.40625 6.453125 -4.40625 C 6.203125 -4.40625 5.953125 -4.140625 5.953125 -3.921875 C 5.953125 -3.796875 6.015625 -3.734375 6.09375 -3.65625 C 6.203125 -3.546875 6.453125 -3.296875 6.453125 -2.8125 C 6.453125 -2.46875 6.171875 -1.5 5.90625 -0.984375 C 5.65625 -0.453125 5.296875 -0.109375 4.8125 -0.109375 C 4.34375 -0.109375 4.078125 -0.40625 4.078125 -0.984375 C 4.078125 -1.25 4.140625 -1.5625 4.1875 -1.703125 Z M 4.609375 -3.375 "
               style="stroke:none;" />
          </symbol>
        </g>
      </defs>
      <g
         id="lx-text1019-9-surface1">
        <g
           id="g3942"
           style="fill:rgb(0%,0%,0%);fill-opacity:1;">
          <use
             id="use3932"
             y="0.0"
             x="0.0"
             xlink:href="#lx-text1019-9-glyph0-1" />
          <use
             id="use3934"
             y="0.0"
             x="6.503585"
             xlink:href="#lx-text1019-9-glyph0-2" />
          <use
             id="use3936"
             y="0.0"
             x="9.271196"
             xlink:href="#lx-text1019-9-glyph0-3" />
          <use
             id="use3938"
             y="0.0"
             x="14.806416"
             xlink:href="#lx-text1019-9-glyph0-4" />
          <use
             id="use3940"
             y="0.0"
             x="17.574026"
             xlink:href="#lx-text1019-9-glyph0-5" />
        </g>
        <g
           id="g3946"
           style="fill:rgb(0%,0%,0%);fill-opacity:1;">
          <use
             id="use3944"
             y="0.0"
             x="26.429"
             xlink:href="#lx-text1019-9-glyph1-1" />
        </g>
      </g>
    </g>
    <g
       id="lx-text1580"
       transform="matrix(0.352778,0,0,0.352778,136.02164,92.180725)">
      <defs
         id="defs3967">
        <g
           id="g3965">
          <symbol
             id="lx-text1580-glyph0-0"
             overflow="visible">
            <path
               id="path3950"
               d=""
               style="stroke:none;" />
          </symbol>
          <symbol
             id="lx-text1580-glyph0-1"
             overflow="visible">
            <path
               id="path3953"
               d="M 5.515625 -6.78125 L 0.328125 -6.78125 L 0.328125 -6.46875 L 0.5625 -6.46875 C 1.328125 -6.46875 1.359375 -6.359375 1.359375 -6 L 1.359375 -0.78125 C 1.359375 -0.421875 1.328125 -0.3125 0.5625 -0.3125 L 0.328125 -0.3125 L 0.328125 0 C 0.671875 -0.03125 1.453125 -0.03125 1.84375 -0.03125 C 2.25 -0.03125 3.15625 -0.03125 3.515625 0 L 3.515625 -0.3125 L 3.1875 -0.3125 C 2.25 -0.3125 2.25 -0.4375 2.25 -0.78125 L 2.25 -6.078125 C 2.25 -6.40625 2.265625 -6.46875 2.734375 -6.46875 L 3.765625 -6.46875 C 5.1875 -6.46875 5.390625 -5.875 5.546875 -4.53125 L 5.796875 -4.53125 Z M 5.515625 -6.78125 "
               style="stroke:none;" />
          </symbol>
          <symbol
             id="lx-text1580-glyph1-0"
             overflow="visible">
            <path
               id="path3956"
               d=""
               style="stroke:none;" />
          </symbol>
          <symbol
             id="lx-text1580-glyph1-1"
             overflow="visible">
            <path
               id="path3959"
               d="M 3.671875 -2.21875 C 3.71875 -2.40625 3.796875 -2.75 3.796875 -2.78125 C 3.796875 -2.921875 3.6875 -3 3.5625 -3 C 3.4375 -3 3.3125 -2.921875 3.265625 -2.796875 C 3.25 -2.75 3.171875 -2.453125 3.125 -2.28125 C 3.03125 -1.875 3.03125 -1.875 2.921875 -1.484375 C 2.84375 -1.09375 2.828125 -1.03125 2.8125 -0.84375 C 2.84375 -0.703125 2.78125 -0.5625 2.625 -0.359375 C 2.53125 -0.25 2.390625 -0.125 2.15625 -0.125 C 1.875 -0.125 1.53125 -0.21875 1.53125 -0.765625 C 1.53125 -1.125 1.71875 -1.640625 1.859375 -2 C 1.984375 -2.296875 2 -2.359375 2 -2.484375 C 2 -2.8125 1.71875 -3.078125 1.34375 -3.078125 C 0.640625 -3.078125 0.328125 -2.125 0.328125 -2 C 0.328125 -1.921875 0.421875 -1.921875 0.453125 -1.921875 C 0.546875 -1.921875 0.546875 -1.953125 0.578125 -2.03125 C 0.75 -2.609375 1.046875 -2.875 1.328125 -2.875 C 1.4375 -2.875 1.5 -2.796875 1.5 -2.640625 C 1.5 -2.46875 1.4375 -2.328125 1.40625 -2.234375 C 1 -1.21875 1 -1.078125 1 -0.859375 C 1 -0.03125 1.75 0.0625 2.125 0.0625 C 2.265625 0.0625 2.59375 0.0625 2.90625 -0.390625 C 3.078125 -0.078125 3.453125 0.0625 3.875 0.0625 C 4.5 0.0625 4.8125 -0.46875 4.953125 -0.75 C 5.25 -1.34375 5.4375 -2.203125 5.4375 -2.53125 C 5.4375 -3.046875 5.140625 -3.078125 5.09375 -3.078125 C 4.90625 -3.078125 4.703125 -2.890625 4.703125 -2.703125 C 4.703125 -2.59375 4.78125 -2.53125 4.828125 -2.5 C 5 -2.359375 5.09375 -2.15625 5.09375 -1.9375 C 5.09375 -1.84375 4.796875 -0.125 3.90625 -0.125 C 3.34375 -0.125 3.34375 -0.625 3.34375 -0.75 C 3.34375 -0.9375 3.375 -1.046875 3.46875 -1.4375 Z M 3.671875 -2.21875 "
               style="stroke:none;" />
          </symbol>
          <symbol
             id="lx-text1580-glyph1-2"
             overflow="visible">
            <path
               id="path3962"
               d="M 3.046875 -2.671875 C 2.796875 -2.625 2.703125 -2.4375 2.703125 -2.28125 C 2.703125 -2.09375 2.84375 -2.015625 2.96875 -2.015625 C 3.125 -2.015625 3.359375 -2.125 3.359375 -2.46875 C 3.359375 -2.9375 2.828125 -3.078125 2.453125 -3.078125 C 1.40625 -3.078125 0.4375 -2.109375 0.4375 -1.140625 C 0.4375 -0.546875 0.84375 0.0625 1.71875 0.0625 C 2.90625 0.0625 3.453125 -0.625 3.453125 -0.71875 C 3.453125 -0.765625 3.390625 -0.84375 3.328125 -0.84375 C 3.296875 -0.84375 3.28125 -0.828125 3.21875 -0.765625 C 2.671875 -0.125 1.859375 -0.125 1.734375 -0.125 C 1.234375 -0.125 1.015625 -0.46875 1.015625 -0.90625 C 1.015625 -1.09375 1.109375 -1.859375 1.46875 -2.34375 C 1.734375 -2.6875 2.09375 -2.875 2.453125 -2.875 C 2.546875 -2.875 2.875 -2.859375 3.046875 -2.671875 Z M 3.046875 -2.671875 "
               style="stroke:none;" />
          </symbol>
        </g>
      </defs>
      <g
         id="lx-text1580-surface1">
        <g
           id="g3971"
           style="fill:rgb(100%,0%,0%);fill-opacity:1;">
          <use
             id="use3969"
             y="0.0"
             x="0.0"
             xlink:href="#lx-text1580-glyph0-1" />
        </g>
        <g
           id="g3975"
           style="fill:rgb(100%,0%,0%);fill-opacity:1;">
          <use
             id="use3973"
             y="1.495"
             x="6.227"
             xlink:href="#lx-text1580-glyph1-1" />
        </g>
        <g
           id="g3979"
           style="fill:rgb(100%,0%,0%);fill-opacity:1;">
          <use
             id="use3977"
             y="1.495"
             x="12.178441"
             xlink:href="#lx-text1580-glyph1-2" />
        </g>
      </g>
    </g>
    <g
       id="lx-text1576"
       transform="matrix(0.352778,0,0,0.352778,100.9022,66.142238)">
      <defs
         id="defs3991">
        <g
           id="g3989">
          <symbol
             id="lx-text1576-glyph0-0"
             overflow="visible">
            <path
               id="path3983"
               d=""
               style="stroke:none;" />
          </symbol>
          <symbol
             id="lx-text1576-glyph0-1"
             overflow="visible">
            <path
               id="path3986"
               d="M 2.578125 -6.8125 C 2.578125 -6.8125 2.578125 -6.921875 2.4375 -6.921875 C 2.21875 -6.921875 1.484375 -6.84375 1.21875 -6.8125 C 1.140625 -6.8125 1.03125 -6.796875 1.03125 -6.609375 C 1.03125 -6.5 1.140625 -6.5 1.28125 -6.5 C 1.765625 -6.5 1.78125 -6.40625 1.78125 -6.328125 L 1.75 -6.125 L 0.484375 -1.140625 C 0.453125 -1.03125 0.4375 -0.96875 0.4375 -0.8125 C 0.4375 -0.234375 0.875 0.109375 1.34375 0.109375 C 1.671875 0.109375 1.921875 -0.09375 2.09375 -0.453125 C 2.265625 -0.828125 2.390625 -1.40625 2.390625 -1.421875 C 2.390625 -1.53125 2.296875 -1.53125 2.265625 -1.53125 C 2.171875 -1.53125 2.15625 -1.484375 2.140625 -1.34375 C 1.96875 -0.703125 1.78125 -0.109375 1.375 -0.109375 C 1.078125 -0.109375 1.078125 -0.421875 1.078125 -0.5625 C 1.078125 -0.8125 1.09375 -0.859375 1.140625 -1.046875 Z M 2.578125 -6.8125 "
               style="stroke:none;" />
          </symbol>
        </g>
      </defs>
      <g
         id="lx-text1576-surface1">
        <g
           id="g3995"
           style="fill:rgb(0%,0%,0%);fill-opacity:1;">
          <use
             id="use3993"
             y="0.0"
             x="0.0"
             xlink:href="#lx-text1576-glyph0-1" />
        </g>
      </g>
    </g>
    <g
       id="lx-text1580-8"
       transform="matrix(0.352778,0,0,0.352778,129.11443,102.7458)">
      <defs
         id="defs4016">
        <g
           id="g4014">
          <symbol
             id="lx-text1580-8-glyph0-0"
             overflow="visible">
            <path
               id="path3999"
               d=""
               style="stroke:none;" />
          </symbol>
          <symbol
             id="lx-text1580-8-glyph0-1"
             overflow="visible">
            <path
               id="path4002"
               d="M 5.515625 -6.78125 L 0.328125 -6.78125 L 0.328125 -6.46875 L 0.5625 -6.46875 C 1.328125 -6.46875 1.359375 -6.359375 1.359375 -6 L 1.359375 -0.78125 C 1.359375 -0.421875 1.328125 -0.3125 0.5625 -0.3125 L 0.328125 -0.3125 L 0.328125 0 C 0.671875 -0.03125 1.453125 -0.03125 1.84375 -0.03125 C 2.25 -0.03125 3.15625 -0.03125 3.515625 0 L 3.515625 -0.3125 L 3.1875 -0.3125 C 2.25 -0.3125 2.25 -0.4375 2.25 -0.78125 L 2.25 -6.078125 C 2.25 -6.40625 2.265625 -6.46875 2.734375 -6.46875 L 3.765625 -6.46875 C 5.1875 -6.46875 5.390625 -5.875 5.546875 -4.53125 L 5.796875 -4.53125 Z M 5.515625 -6.78125 "
               style="stroke:none;" />
          </symbol>
          <symbol
             id="lx-text1580-8-glyph1-0"
             overflow="visible">
            <path
               id="path4005"
               d=""
               style="stroke:none;" />
          </symbol>
          <symbol
             id="lx-text1580-8-glyph1-1"
             overflow="visible">
            <path
               id="path4008"
               d="M 3.703125 -1.859375 C 3.703125 -2.625 3.125 -3.078125 2.4375 -3.078125 C 1.40625 -3.078125 0.4375 -2.109375 0.4375 -1.15625 C 0.4375 -0.453125 0.9375 0.0625 1.703125 0.0625 C 2.703125 0.0625 3.703125 -0.84375 3.703125 -1.859375 Z M 1.703125 -0.125 C 1.359375 -0.125 1.015625 -0.34375 1.015625 -0.90625 C 1.015625 -1.1875 1.140625 -1.875 1.421875 -2.265625 C 1.71875 -2.703125 2.125 -2.875 2.4375 -2.875 C 2.8125 -2.875 3.125 -2.625 3.125 -2.109375 C 3.125 -1.9375 3.046875 -1.25 2.734375 -0.765625 C 2.46875 -0.34375 2.0625 -0.125 1.703125 -0.125 Z M 1.703125 -0.125 "
               style="stroke:none;" />
          </symbol>
          <symbol
             id="lx-text1580-8-glyph1-2"
             overflow="visible">
            <path
               id="path4011"
               d="M 3.671875 -2.21875 C 3.71875 -2.40625 3.796875 -2.75 3.796875 -2.78125 C 3.796875 -2.921875 3.6875 -3 3.5625 -3 C 3.4375 -3 3.3125 -2.921875 3.265625 -2.796875 C 3.25 -2.75 3.171875 -2.453125 3.125 -2.28125 C 3.03125 -1.875 3.03125 -1.875 2.921875 -1.484375 C 2.84375 -1.09375 2.828125 -1.03125 2.8125 -0.84375 C 2.84375 -0.703125 2.78125 -0.5625 2.625 -0.359375 C 2.53125 -0.25 2.390625 -0.125 2.15625 -0.125 C 1.875 -0.125 1.53125 -0.21875 1.53125 -0.765625 C 1.53125 -1.125 1.71875 -1.640625 1.859375 -2 C 1.984375 -2.296875 2 -2.359375 2 -2.484375 C 2 -2.8125 1.71875 -3.078125 1.34375 -3.078125 C 0.640625 -3.078125 0.328125 -2.125 0.328125 -2 C 0.328125 -1.921875 0.421875 -1.921875 0.453125 -1.921875 C 0.546875 -1.921875 0.546875 -1.953125 0.578125 -2.03125 C 0.75 -2.609375 1.046875 -2.875 1.328125 -2.875 C 1.4375 -2.875 1.5 -2.796875 1.5 -2.640625 C 1.5 -2.46875 1.4375 -2.328125 1.40625 -2.234375 C 1 -1.21875 1 -1.078125 1 -0.859375 C 1 -0.03125 1.75 0.0625 2.125 0.0625 C 2.265625 0.0625 2.59375 0.0625 2.90625 -0.390625 C 3.078125 -0.078125 3.453125 0.0625 3.875 0.0625 C 4.5 0.0625 4.8125 -0.46875 4.953125 -0.75 C 5.25 -1.34375 5.4375 -2.203125 5.4375 -2.53125 C 5.4375 -3.046875 5.140625 -3.078125 5.09375 -3.078125 C 4.90625 -3.078125 4.703125 -2.890625 4.703125 -2.703125 C 4.703125 -2.59375 4.78125 -2.53125 4.828125 -2.5 C 5 -2.359375 5.09375 -2.15625 5.09375 -1.9375 C 5.09375 -1.84375 4.796875 -0.125 3.90625 -0.125 C 3.34375 -0.125 3.34375 -0.625 3.34375 -0.75 C 3.34375 -0.9375 3.375 -1.046875 3.46875 -1.4375 Z M 3.671875 -2.21875 "
               style="stroke:none;" />
          </symbol>
        </g>
      </defs>
      <g
         id="lx-text1580-8-surface1">
        <g
           id="g4020"
           style="fill:rgb(0%,0%,100%);fill-opacity:1;">
          <use
             id="use4018"
             y="0.0"
             x="0.0"
             xlink:href="#lx-text1580-8-glyph0-1" />
        </g>
        <g
           id="g4026"
           style="fill:rgb(0%,0%,100%);fill-opacity:1;">
          <use
             id="use4022"
             y="1.495"
             x="6.227"
             xlink:href="#lx-text1580-8-glyph1-1" />
          <use
             id="use4024"
             y="1.495"
             x="10.159526"
             xlink:href="#lx-text1580-8-glyph1-2" />
        </g>
      </g>
    </g>
    <g
       id="lx-text2055"
       transform="matrix(0.352778,0,0,0.352778,120.82859,125.0952)">
      <defs
         id="defs4038">
        <g
           id="g4036">
          <symbol
             id="lx-text2055-glyph0-0"
             overflow="visible">
            <path
               id="path4030"
               d=""
               style="stroke:none;" />
          </symbol>
          <symbol
             id="lx-text2055-glyph0-1"
             overflow="visible">
            <path
               id="path4033"
               d="M 2.859375 -6.8125 C 2.859375 -6.8125 2.859375 -6.921875 2.734375 -6.921875 C 2.5 -6.921875 1.78125 -6.84375 1.515625 -6.8125 C 1.4375 -6.8125 1.328125 -6.796875 1.328125 -6.625 C 1.328125 -6.5 1.421875 -6.5 1.5625 -6.5 C 2.046875 -6.5 2.0625 -6.4375 2.0625 -6.328125 L 2.03125 -6.125 L 0.59375 -0.390625 C 0.546875 -0.25 0.546875 -0.234375 0.546875 -0.171875 C 0.546875 0.0625 0.75 0.109375 0.84375 0.109375 C 1 0.109375 1.15625 -0.015625 1.203125 -0.15625 L 1.390625 -0.90625 L 1.609375 -1.796875 C 1.671875 -2.03125 1.734375 -2.25 1.78125 -2.46875 C 1.796875 -2.53125 1.890625 -2.859375 1.890625 -2.921875 C 1.921875 -3.015625 2.234375 -3.5625 2.578125 -3.84375 C 2.796875 -4 3.09375 -4.1875 3.53125 -4.1875 C 3.953125 -4.1875 4.0625 -3.84375 4.0625 -3.484375 C 4.0625 -2.953125 3.6875 -1.859375 3.453125 -1.25 C 3.375 -1.03125 3.3125 -0.90625 3.3125 -0.703125 C 3.3125 -0.234375 3.671875 0.109375 4.140625 0.109375 C 5.078125 0.109375 5.4375 -1.34375 5.4375 -1.421875 C 5.4375 -1.53125 5.359375 -1.53125 5.328125 -1.53125 C 5.21875 -1.53125 5.21875 -1.5 5.171875 -1.34375 C 5.03125 -0.8125 4.703125 -0.109375 4.15625 -0.109375 C 3.984375 -0.109375 3.921875 -0.203125 3.921875 -0.4375 C 3.921875 -0.6875 4 -0.921875 4.09375 -1.140625 C 4.25 -1.578125 4.703125 -2.765625 4.703125 -3.34375 C 4.703125 -3.984375 4.3125 -4.40625 3.5625 -4.40625 C 2.9375 -4.40625 2.453125 -4.09375 2.078125 -3.640625 Z M 2.859375 -6.8125 "
               style="stroke:none;" />
          </symbol>
        </g>
      </defs>
      <g
         id="lx-text2055-surface1">
        <g
           id="g4042"
           style="fill:rgb(0%,0%,0%);fill-opacity:1;">
          <use
             id="use4040"
             y="0.0"
             x="0.0"
             xlink:href="#lx-text2055-glyph0-1" />
        </g>
      </g>
    </g>
    <g
       id="lx-text3676"
       transform="matrix(0.352778,0.000000,0.000000,0.352778,130.670489,80.874899)">
      <defs
         id="defs4075">
        <g
           id="g4073">
          <symbol
             id="lx-text3676-glyph0-0"
             overflow="visible">
            <path
               id="path4046"
               d=""
               style="stroke:none;" />
          </symbol>
          <symbol
             id="lx-text3676-glyph0-1"
             overflow="visible">
            <path
               id="path4049"
               d="M 0.5625 -3.40625 C 0.5625 -1.34375 2.171875 0.21875 4.03125 0.21875 C 5.65625 0.21875 6.625 -1.171875 6.625 -2.328125 C 6.625 -2.421875 6.625 -2.5 6.5 -2.5 C 6.390625 -2.5 6.390625 -2.4375 6.375 -2.328125 C 6.296875 -0.90625 5.234375 -0.09375 4.140625 -0.09375 C 3.53125 -0.09375 1.578125 -0.421875 1.578125 -3.40625 C 1.578125 -6.375 3.53125 -6.71875 4.140625 -6.71875 C 5.21875 -6.71875 6.109375 -5.8125 6.3125 -4.359375 C 6.328125 -4.21875 6.328125 -4.1875 6.46875 -4.1875 C 6.625 -4.1875 6.625 -4.21875 6.625 -4.421875 L 6.625 -6.78125 C 6.625 -6.953125 6.625 -7.03125 6.515625 -7.03125 C 6.484375 -7.03125 6.4375 -7.03125 6.359375 -6.90625 L 5.859375 -6.171875 C 5.5 -6.53125 4.984375 -7.03125 4.03125 -7.03125 C 2.15625 -7.03125 0.5625 -5.4375 0.5625 -3.40625 Z M 0.5625 -3.40625 "
               style="stroke:none;" />
          </symbol>
          <symbol
             id="lx-text3676-glyph0-2"
             overflow="visible">
            <path
               id="path4052"
               d="M 4.140625 -3.34375 C 4.390625 -3.984375 4.90625 -3.984375 5.0625 -3.984375 L 5.0625 -4.296875 C 4.828125 -4.28125 4.546875 -4.265625 4.3125 -4.265625 C 4.140625 -4.265625 3.671875 -4.28125 3.453125 -4.296875 L 3.453125 -3.984375 C 3.765625 -3.984375 3.921875 -3.8125 3.921875 -3.5625 C 3.921875 -3.453125 3.90625 -3.4375 3.859375 -3.3125 L 2.84375 -0.875 L 1.75 -3.546875 C 1.703125 -3.65625 1.6875 -3.6875 1.6875 -3.734375 C 1.6875 -3.984375 2.046875 -3.984375 2.25 -3.984375 L 2.25 -4.296875 C 1.984375 -4.28125 1.328125 -4.265625 1.15625 -4.265625 C 0.890625 -4.265625 0.484375 -4.28125 0.1875 -4.296875 L 0.1875 -3.984375 C 0.671875 -3.984375 0.859375 -3.984375 1 -3.640625 L 2.5 0 C 2.4375 0.125 2.296875 0.453125 2.25 0.59375 C 2.03125 1.140625 1.75 1.828125 1.109375 1.828125 C 1.0625 1.828125 0.828125 1.828125 0.640625 1.640625 C 0.953125 1.609375 1.03125 1.390625 1.03125 1.21875 C 1.03125 0.96875 0.84375 0.8125 0.609375 0.8125 C 0.40625 0.8125 0.1875 0.9375 0.1875 1.234375 C 0.1875 1.6875 0.609375 2.046875 1.109375 2.046875 C 1.734375 2.046875 2.140625 1.46875 2.375 0.90625 Z M 4.140625 -3.34375 "
               style="stroke:none;" />
          </symbol>
          <symbol
             id="lx-text3676-glyph0-3"
             overflow="visible">
            <path
               id="path4055"
               d="M 1.765625 -6.921875 L 0.328125 -6.8125 L 0.328125 -6.5 C 1.03125 -6.5 1.109375 -6.4375 1.109375 -5.9375 L 1.109375 -0.75 C 1.109375 -0.3125 1 -0.3125 0.328125 -0.3125 L 0.328125 0 C 0.65625 -0.015625 1.1875 -0.03125 1.4375 -0.03125 C 1.6875 -0.03125 2.171875 -0.015625 2.546875 0 L 2.546875 -0.3125 C 1.875 -0.3125 1.765625 -0.3125 1.765625 -0.75 Z M 1.765625 -6.921875 "
               style="stroke:none;" />
          </symbol>
          <symbol
             id="lx-text3676-glyph0-4"
             overflow="visible">
            <path
               id="path4058"
               d="M 1.765625 -4.40625 L 0.375 -4.296875 L 0.375 -3.984375 C 1.015625 -3.984375 1.109375 -3.921875 1.109375 -3.4375 L 1.109375 -0.75 C 1.109375 -0.3125 1 -0.3125 0.328125 -0.3125 L 0.328125 0 C 0.640625 -0.015625 1.1875 -0.03125 1.421875 -0.03125 C 1.78125 -0.03125 2.125 -0.015625 2.46875 0 L 2.46875 -0.3125 C 1.796875 -0.3125 1.765625 -0.359375 1.765625 -0.75 Z M 1.796875 -6.140625 C 1.796875 -6.453125 1.5625 -6.671875 1.28125 -6.671875 C 0.96875 -6.671875 0.75 -6.40625 0.75 -6.140625 C 0.75 -5.875 0.96875 -5.609375 1.28125 -5.609375 C 1.5625 -5.609375 1.796875 -5.828125 1.796875 -6.140625 Z M 1.796875 -6.140625 "
               style="stroke:none;" />
          </symbol>
          <symbol
             id="lx-text3676-glyph0-5"
             overflow="visible">
            <path
               id="path4061"
               d="M 1.09375 -3.421875 L 1.09375 -0.75 C 1.09375 -0.3125 0.984375 -0.3125 0.3125 -0.3125 L 0.3125 0 C 0.671875 -0.015625 1.171875 -0.03125 1.453125 -0.03125 C 1.703125 -0.03125 2.21875 -0.015625 2.5625 0 L 2.5625 -0.3125 C 1.890625 -0.3125 1.78125 -0.3125 1.78125 -0.75 L 1.78125 -2.59375 C 1.78125 -3.625 2.5 -4.1875 3.125 -4.1875 C 3.765625 -4.1875 3.875 -3.65625 3.875 -3.078125 L 3.875 -0.75 C 3.875 -0.3125 3.765625 -0.3125 3.09375 -0.3125 L 3.09375 0 C 3.4375 -0.015625 3.953125 -0.03125 4.21875 -0.03125 C 4.46875 -0.03125 5 -0.015625 5.328125 0 L 5.328125 -0.3125 C 4.8125 -0.3125 4.5625 -0.3125 4.5625 -0.609375 L 4.5625 -2.515625 C 4.5625 -3.375 4.5625 -3.671875 4.25 -4.03125 C 4.109375 -4.203125 3.78125 -4.40625 3.203125 -4.40625 C 2.46875 -4.40625 2 -3.984375 1.71875 -3.359375 L 1.71875 -4.40625 L 0.3125 -4.296875 L 0.3125 -3.984375 C 1.015625 -3.984375 1.09375 -3.921875 1.09375 -3.421875 Z M 1.09375 -3.421875 "
               style="stroke:none;" />
          </symbol>
          <symbol
             id="lx-text3676-glyph0-6"
             overflow="visible">
            <path
               id="path4064"
               d="M 3.78125 -0.546875 L 3.78125 0.109375 L 5.25 0 L 5.25 -0.3125 C 4.5625 -0.3125 4.46875 -0.375 4.46875 -0.875 L 4.46875 -6.921875 L 3.046875 -6.8125 L 3.046875 -6.5 C 3.734375 -6.5 3.8125 -6.4375 3.8125 -5.9375 L 3.8125 -3.78125 C 3.53125 -4.140625 3.09375 -4.40625 2.5625 -4.40625 C 1.390625 -4.40625 0.34375 -3.421875 0.34375 -2.140625 C 0.34375 -0.875 1.3125 0.109375 2.453125 0.109375 C 3.09375 0.109375 3.53125 -0.234375 3.78125 -0.546875 Z M 3.78125 -3.21875 L 3.78125 -1.171875 C 3.78125 -1 3.78125 -0.984375 3.671875 -0.8125 C 3.375 -0.328125 2.9375 -0.109375 2.5 -0.109375 C 2.046875 -0.109375 1.6875 -0.375 1.453125 -0.75 C 1.203125 -1.15625 1.171875 -1.71875 1.171875 -2.140625 C 1.171875 -2.5 1.1875 -3.09375 1.46875 -3.546875 C 1.6875 -3.859375 2.0625 -4.1875 2.609375 -4.1875 C 2.953125 -4.1875 3.375 -4.03125 3.671875 -3.59375 C 3.78125 -3.421875 3.78125 -3.40625 3.78125 -3.21875 Z M 3.78125 -3.21875 "
               style="stroke:none;" />
          </symbol>
          <symbol
             id="lx-text3676-glyph0-7"
             overflow="visible">
            <path
               id="path4067"
               d="M 1.109375 -2.515625 C 1.171875 -4 2.015625 -4.25 2.359375 -4.25 C 3.375 -4.25 3.484375 -2.90625 3.484375 -2.515625 Z M 1.109375 -2.296875 L 3.890625 -2.296875 C 4.109375 -2.296875 4.140625 -2.296875 4.140625 -2.515625 C 4.140625 -3.5 3.59375 -4.46875 2.359375 -4.46875 C 1.203125 -4.46875 0.28125 -3.4375 0.28125 -2.1875 C 0.28125 -0.859375 1.328125 0.109375 2.46875 0.109375 C 3.6875 0.109375 4.140625 -1 4.140625 -1.1875 C 4.140625 -1.28125 4.0625 -1.3125 4 -1.3125 C 3.921875 -1.3125 3.890625 -1.25 3.875 -1.171875 C 3.53125 -0.140625 2.625 -0.140625 2.53125 -0.140625 C 2.03125 -0.140625 1.640625 -0.4375 1.40625 -0.8125 C 1.109375 -1.28125 1.109375 -1.9375 1.109375 -2.296875 Z M 1.109375 -2.296875 "
               style="stroke:none;" />
          </symbol>
          <symbol
             id="lx-text3676-glyph0-8"
             overflow="visible">
            <path
               id="path4070"
               d="M 1.671875 -3.3125 L 1.671875 -4.40625 L 0.28125 -4.296875 L 0.28125 -3.984375 C 0.984375 -3.984375 1.0625 -3.921875 1.0625 -3.421875 L 1.0625 -0.75 C 1.0625 -0.3125 0.953125 -0.3125 0.28125 -0.3125 L 0.28125 0 C 0.671875 -0.015625 1.140625 -0.03125 1.421875 -0.03125 C 1.8125 -0.03125 2.28125 -0.03125 2.6875 0 L 2.6875 -0.3125 L 2.46875 -0.3125 C 1.734375 -0.3125 1.71875 -0.421875 1.71875 -0.78125 L 1.71875 -2.3125 C 1.71875 -3.296875 2.140625 -4.1875 2.890625 -4.1875 C 2.953125 -4.1875 2.984375 -4.1875 3 -4.171875 C 2.96875 -4.171875 2.765625 -4.046875 2.765625 -3.78125 C 2.765625 -3.515625 2.984375 -3.359375 3.203125 -3.359375 C 3.375 -3.359375 3.625 -3.484375 3.625 -3.796875 C 3.625 -4.109375 3.3125 -4.40625 2.890625 -4.40625 C 2.15625 -4.40625 1.796875 -3.734375 1.671875 -3.3125 Z M 1.671875 -3.3125 "
               style="stroke:none;" />
          </symbol>
        </g>
      </defs>
      <g
         id="lx-text3676-surface1">
        <g
           id="g4093"
           style="fill:rgb(0%,0%,0%);fill-opacity:1;">
          <use
             id="use4077"
             y="0.0"
             x="0.0"
             xlink:href="#lx-text3676-glyph0-1" />
          <use
             id="use4079"
             y="0.0"
             x="7.19499"
             xlink:href="#lx-text3676-glyph0-2" />
          <use
             id="use4081"
             y="0.0"
             x="12.45325"
             xlink:href="#lx-text3676-glyph0-3" />
          <use
             id="use4083"
             y="0.0"
             x="15.22086"
             xlink:href="#lx-text3676-glyph0-4" />
          <use
             id="use4085"
             y="0.0"
             x="17.988471"
             xlink:href="#lx-text3676-glyph0-5" />
          <use
             id="use4087"
             y="0.0"
             x="23.523691"
             xlink:href="#lx-text3676-glyph0-6" />
          <use
             id="use4089"
             y="0.0"
             x="29.058912"
             xlink:href="#lx-text3676-glyph0-7" />
          <use
             id="use4091"
             y="0.0"
             x="33.486291"
             xlink:href="#lx-text3676-glyph0-8" />
        </g>
      </g>
    </g>
  </g>
</svg>
