<?xml version="1.0" encoding="UTF-8" standalone="no"?>
<!-- Created with Inkscape (http://www.inkscape.org/) -->

<svg
   xmlns:dc="http://purl.org/dc/elements/1.1/"
   xmlns:cc="http://creativecommons.org/ns#"
   xmlns:rdf="http://www.w3.org/1999/02/22-rdf-syntax-ns#"
   xmlns:svg="http://www.w3.org/2000/svg"
   xmlns="http://www.w3.org/2000/svg"
   xmlns:xlink="http://www.w3.org/1999/xlink"
   xmlns:sodipodi="http://sodipodi.sourceforge.net/DTD/sodipodi-0.dtd"
   xmlns:inkscape="http://www.inkscape.org/namespaces/inkscape"
   width="133.29509mm"
   height="121.61591mm"
   viewBox="0 0 133.29509 121.61591"
   version="1.1"
   id="svg8"
   inkscape:version="0.92.4 (5da689c313, 2019-01-14)"
   sodipodi:docname="dessin_courbure.svg">
  <defs
     id="defs2">
    <linearGradient
       inkscape:collect="always"
       id="linearGradient1021">
      <stop
         style="stop-color:#e9c6af;stop-opacity:1;"
         offset="0"
         id="stop1017" />
      <stop
         style="stop-color:#e9c6af;stop-opacity:0;"
         offset="1"
         id="stop1019" />
    </linearGradient>
    <linearGradient
       inkscape:collect="always"
       id="linearGradient1013">
      <stop
         style="stop-color:#8acd87;stop-opacity:1;"
         offset="0"
         id="stop1009" />
      <stop
         style="stop-color:#8acd87;stop-opacity:0;"
         offset="1"
         id="stop1011" />
    </linearGradient>
    <marker
       inkscape:stockid="Arrow1Lend"
       orient="auto"
       refY="0"
       refX="0"
       id="marker2964"
       style="overflow:visible"
       inkscape:isstock="true">
      <path
         id="path2962"
         d="M 0,0 5,-5 -12.5,0 5,5 Z"
         style="fill:#000000;fill-opacity:1;fill-rule:evenodd;stroke:#000000;stroke-width:1.00000003pt;stroke-opacity:1"
         transform="matrix(-0.8,0,0,-0.8,-10,0)"
         inkscape:connector-curvature="0" />
    </marker>
    <marker
       inkscape:stockid="Arrow1Lend"
       orient="auto"
       refY="0"
       refX="0"
       id="marker2900"
       style="overflow:visible"
       inkscape:isstock="true">
      <path
         id="path2898"
         d="M 0,0 5,-5 -12.5,0 5,5 Z"
         style="fill:#000000;fill-opacity:1;fill-rule:evenodd;stroke:#000000;stroke-width:1.00000003pt;stroke-opacity:1"
         transform="matrix(-0.8,0,0,-0.8,-10,0)"
         inkscape:connector-curvature="0" />
    </marker>
    <marker
       inkscape:stockid="Arrow1Lend"
       orient="auto"
       refY="0"
       refX="0"
       id="marker2842"
       style="overflow:visible"
       inkscape:isstock="true">
      <path
         id="path2840"
         d="M 0,0 5,-5 -12.5,0 5,5 Z"
         style="fill:#000000;fill-opacity:1;fill-rule:evenodd;stroke:#000000;stroke-width:1.00000003pt;stroke-opacity:1"
         transform="matrix(-0.8,0,0,-0.8,-10,0)"
         inkscape:connector-curvature="0" />
    </marker>
    <marker
       inkscape:stockid="Arrow1Lend"
       orient="auto"
       refY="0"
       refX="0"
       id="marker2790"
       style="overflow:visible"
       inkscape:isstock="true">
      <path
         id="path2788"
         d="M 0,0 5,-5 -12.5,0 5,5 Z"
         style="fill:#000000;fill-opacity:1;fill-rule:evenodd;stroke:#000000;stroke-width:1.00000003pt;stroke-opacity:1"
         transform="matrix(-0.8,0,0,-0.8,-10,0)"
         inkscape:connector-curvature="0" />
    </marker>
    <marker
       inkscape:isstock="true"
       style="overflow:visible"
       id="marker2700"
       refX="0"
       refY="0"
       orient="auto"
       inkscape:stockid="Arrow1Lstart">
      <path
         transform="matrix(0.8,0,0,0.8,10,0)"
         style="fill:#000000;fill-opacity:1;fill-rule:evenodd;stroke:#000000;stroke-width:1.00000003pt;stroke-opacity:1"
         d="M 0,0 5,-5 -12.5,0 5,5 Z"
         id="path2698"
         inkscape:connector-curvature="0" />
    </marker>
    <marker
       inkscape:isstock="true"
       style="overflow:visible"
       id="marker2648"
       refX="0"
       refY="0"
       orient="auto"
       inkscape:stockid="Arrow1Lend"
       inkscape:collect="always">
      <path
         transform="matrix(-0.8,0,0,-0.8,-10,0)"
         style="fill:#000000;fill-opacity:1;fill-rule:evenodd;stroke:#000000;stroke-width:1.00000003pt;stroke-opacity:1"
         d="M 0,0 5,-5 -12.5,0 5,5 Z"
         id="path2646"
         inkscape:connector-curvature="0" />
    </marker>
    <marker
       inkscape:stockid="Arrow1Lend"
       orient="auto"
       refY="0"
       refX="0"
       id="Arrow1Lend"
       style="overflow:visible"
       inkscape:isstock="true"
       inkscape:collect="always">
      <path
         id="path1048"
         d="M 0,0 5,-5 -12.5,0 5,5 Z"
         style="fill:#000000;fill-opacity:1;fill-rule:evenodd;stroke:#000000;stroke-width:1.00000003pt;stroke-opacity:1"
         transform="matrix(-0.8,0,0,-0.8,-10,0)"
         inkscape:connector-curvature="0" />
    </marker>
    <marker
       inkscape:stockid="Arrow1Lstart"
       orient="auto"
       refY="0"
       refX="0"
       id="marker1347"
       style="overflow:visible"
       inkscape:isstock="true"
       inkscape:collect="always">
      <path
         id="path1345"
         d="M 0,0 5,-5 -12.5,0 5,5 Z"
         style="fill:#000000;fill-opacity:1;fill-rule:evenodd;stroke:#000000;stroke-width:1.00000003pt;stroke-opacity:1"
         transform="matrix(0.8,0,0,0.8,10,0)"
         inkscape:connector-curvature="0" />
    </marker>
    <marker
       inkscape:stockid="Arrow1Lstart"
       orient="auto"
       refY="0"
       refX="0"
       id="Arrow1Lstart"
       style="overflow:visible"
       inkscape:isstock="true">
      <path
         id="path1045"
         d="M 0,0 5,-5 -12.5,0 5,5 Z"
         style="fill:#000000;fill-opacity:1;fill-rule:evenodd;stroke:#000000;stroke-width:1.00000003pt;stroke-opacity:1"
         transform="matrix(0.8,0,0,0.8,10,0)"
         inkscape:connector-curvature="0" />
    </marker>
    <marker
       inkscape:stockid="Arrow1Lstart"
       orient="auto"
       refY="0"
       refX="0"
       id="marker1347-9"
       style="overflow:visible"
       inkscape:isstock="true">
      <path
         inkscape:connector-curvature="0"
         id="path1345-6"
         d="M 0,0 5,-5 -12.5,0 5,5 Z"
         style="fill:#000000;fill-opacity:1;fill-rule:evenodd;stroke:#000000;stroke-width:1.00000003pt;stroke-opacity:1"
         transform="matrix(0.8,0,0,0.8,10,0)" />
    </marker>
    <marker
       inkscape:stockid="Arrow1Lend"
       orient="auto"
       refY="0"
       refX="0"
       id="marker2900-2"
       style="overflow:visible"
       inkscape:isstock="true">
      <path
         inkscape:connector-curvature="0"
         id="path2898-2"
         d="M 0,0 5,-5 -12.5,0 5,5 Z"
         style="fill:#000000;fill-opacity:1;fill-rule:evenodd;stroke:#000000;stroke-width:1.00000003pt;stroke-opacity:1"
         transform="matrix(-0.8,0,0,-0.8,-10,0)" />
    </marker>
    <linearGradient
       inkscape:collect="always"
       xlink:href="#linearGradient1013"
       id="linearGradient1015"
       x1="132.02235"
       y1="425.19235"
       x2="447.38049"
       y2="425.19235"
       gradientUnits="userSpaceOnUse" />
    <linearGradient
       inkscape:collect="always"
       xlink:href="#linearGradient1021"
       id="linearGradient1023"
       x1="125.77608"
       y1="-27.226494"
       x2="171.9548"
       y2="-27.226494"
       gradientUnits="userSpaceOnUse" />
  </defs>
  <sodipodi:namedview
     id="base"
     pagecolor="#ffffff"
     bordercolor="#666666"
     borderopacity="1.0"
     inkscape:pageopacity="0.0"
     inkscape:pageshadow="2"
     inkscape:zoom="0.54478437"
     inkscape:cx="268.24274"
     inkscape:cy="236.29523"
     inkscape:document-units="mm"
     inkscape:current-layer="layer1"
     showgrid="false"
     inkscape:window-width="1920"
     inkscape:window-height="970"
     inkscape:window-x="0"
     inkscape:window-y="27"
     inkscape:window-maximized="1"
     fit-margin-top="0"
     fit-margin-left="0"
     fit-margin-right="0"
     fit-margin-bottom="0">
    <inkscape:grid
       type="xygrid"
       id="grid815"
       originx="-33.616473"
       originy="-124.07522" />
  </sodipodi:namedview>
  <metadata
     id="metadata5">
    <rdf:RDF>
      <cc:Work
         rdf:about="">
        <dc:format>image/svg+xml</dc:format>
        <dc:type
           rdf:resource="http://purl.org/dc/dcmitype/StillImage" />
        <dc:title></dc:title>
      </cc:Work>
    </rdf:RDF>
  </metadata>
  <g
     inkscape:label="Calque 1"
     inkscape:groupmode="layer"
     id="layer1"
     transform="translate(-33.616472,-51.30887)">
    <path
       style="opacity:1;fill:#82a5a6;fill-opacity:1;stroke:none;stroke-width:0.17857142;stroke-miterlimit:4;stroke-dasharray:0.71428567, 0.71428567;stroke-dashoffset:0;stroke-opacity:1"
       d="m 296.73497,385.85167 c -0.66603,-8.04148 -0.39832,-17.89016 0.68216,-25.09604 1.4853,-9.90578 5.71455,-19.78112 13.45639,-31.42088 1.14283,-1.71823 3.45061,-5.05481 5.12839,-7.41462 8.8351,-12.42659 14.40025,-21.92628 17.62909,-30.09276 3.21455,-8.13031 3.60919,-12.63166 1.72939,-19.7257 -0.28628,-1.08036 -0.57289,-2.16518 -0.6369,-2.41072 l -0.1164,-0.44643 -4.25474,-8.63701 c 0.59717,0.29467 3.74641,3.50131 6.55104,8.05898 1.47961,2.40444 3.60147,4.79502 3.88587,5.51246 1.4931,3.76656 3.06085,6.88684 3.72649,9.99606 0.34848,1.62775 -0.31913,3.95817 -0.44713,5.51284 0.41748,4.93583 -1.2981,7.66182 -2.12379,11.29774 -1.21829,5.36474 -2.46509,9.1203 -4.89778,12.95713 -2.59401,4.09124 -2.89187,7.13431 -11.45758,13.22843 -7.04907,7.0398 -4.92573,11.13395 -9.0344,17.59577 -3.97542,6.25225 -13.07409,14.51307 -14.79972,19.53177 -0.78201,2.27435 -1.42917,5.11638 -2.00352,8.23669 -0.70584,3.83466 -0.97256,7.04698 -1.55234,13.72124 l -1.33141,1.20219 z"
       id="path1041"
       inkscape:connector-curvature="0"
       transform="scale(0.26458333)"
       sodipodi:nodetypes="scsccccccscscsccscsccs" />
    <path
       style="opacity:1;fill:#82a5a6;fill-opacity:1;stroke:none;stroke-width:0.25253811;stroke-miterlimit:4;stroke-dasharray:none;stroke-dashoffset:0;stroke-opacity:1"
       d="m 447.60966,537.6391 c 0.93084,-4.33314 1.45735,-9.23212 1.45882,-13.57392 0.002,-5.09752 -0.34895,-7.1435 -1.7188,-10.02803 -1.20181,-2.53066 -2.17193,-3.87594 -4.65132,-6.45009 -1.17061,-1.21534 -4.46455,-4.53113 -4.37345,-4.53113 0.20348,0 3.33659,1.56392 6.28344,3.10133 1.51657,0.79122 6.58792,3.30857 8.34004,4.22611 6.18944,3.49232 8.99801,6.14578 13.20003,10.23043 3.46764,3.37078 6.93787,7.6935 6.70201,7.92936 -0.14299,0.14299 -25.20189,10.67431 -25.39658,10.67431 -0.10079,0 -0.0307,-0.71027 0.15581,-1.57837 z"
       id="path1027"
       inkscape:connector-curvature="0"
       transform="scale(0.26458333)"
       sodipodi:nodetypes="ccccsscsssc" />
    <path
       style="fill:none;stroke:#000000;stroke-width:0.26458332px;stroke-linecap:butt;stroke-linejoin:miter;stroke-opacity:1"
       d="M 34.395828,80.041661 C 39.687495,77.395828 108.47916,58.874994 108.47916,58.874994 L 166.6875,122.375 79.374993,159.41666 Z"
       id="path819-4"
       inkscape:connector-curvature="0" />
    <path
       style="opacity:1;fill:url(#linearGradient1023);fill-opacity:1;stroke:#000000;stroke-width:0.16712652;stroke-miterlimit:4;stroke-dasharray:none;stroke-dashoffset:0;stroke-opacity:1"
       id="path838"
       sodipodi:type="arc"
       sodipodi:cx="148.86545"
       sodipodi:cy="-38.747082"
       sodipodi:rx="23.005787"
       sodipodi:ry="23.420092"
       sodipodi:start="0"
       sodipodi:end="3.1612664"
       d="m 171.87123,-38.747082 a 23.005787,23.420092 0 0 1 -11.63379,20.358751 23.005787,23.420092 0 0 1 -23.1352,-0.231684 23.005787,23.420092 0 0 1 -11.23813,-20.587798"
       transform="matrix(0.68326624,0.73016933,-0.82924539,0.55888468,0,0)"
       sodipodi:open="true" />
    <path
       style="fill:none;stroke:#000000;stroke-width:0.18392642;stroke-linecap:butt;stroke-linejoin:miter;stroke-miterlimit:4;stroke-dasharray:0.73570567, 0.73570567;stroke-dashoffset:0;stroke-opacity:1"
       d="m 108.77132,85.924371 0.135,13.039379"
       id="path859-0"
       inkscape:connector-curvature="0" />
    <path
       style="fill:none;stroke:#000000;stroke-width:0.26458332px;stroke-linecap:butt;stroke-linejoin:miter;stroke-opacity:1"
       d="m 114.72178,132.70989 c -1.95059,-0.93502 -3.54042,-1.49764 -8.47423,-2.81311 -6.12416,-1.20755 -11.420476,-4.73957 -16.520424,-7.89546 -3.969134,-2.31846 -8.344068,-9.646 -10.063326,-13.9057 -1.53631,-3.89972 -1.679553,-9.049593 -1.098476,-12.860561 0.680157,-4.236818 3.255717,-7.758486 4.441398,-9.487107 0.564326,-0.82274 6.356122,-8.399835 5.857975,-12.29516 -0.764223,-5.975941 -5.52318,-7.560808 -5.52318,-7.560808"
       id="path890"
       inkscape:connector-curvature="0"
       sodipodi:nodetypes="cccccssc" />
    <path
       style="fill:none;stroke:#000000;stroke-width:0.25600001;stroke-linecap:butt;stroke-linejoin:miter;stroke-miterlimit:4;stroke-dasharray:none;stroke-dashoffset:0;stroke-opacity:1"
       d="m 118.08137,142.87448 c 0.068,0.12084 0.5586,0.002 1.26019,-0.18113 1.23458,-0.32303 3.1461,-0.70615 4.53414,-0.48442 1.87401,0.29936 3.05316,1.14823 3.05316,1.14823 1.98456,1.55375 1.88429,4.09845 0.94893,5.80384 0,0 -1.32642,1.90978 -2.36987,2.66496 -1.3629,0.98639 -4.07617,2.83796 -7.42809,3.98422"
       id="path892"
       inkscape:connector-curvature="0"
       sodipodi:nodetypes="cssscsc" />
    <path
       style="opacity:1;fill:#a2abb6;fill-opacity:1;stroke:none;stroke-width:0.71541053;stroke-miterlimit:4;stroke-dasharray:none;stroke-dashoffset:0;stroke-opacity:1"
       d="m 491.30144,458.66789 c -16.99394,-2.6004 -33.35804,-9.26894 -46.52311,-18.95864 -6.00934,-4.42297 -16.06408,-14.79099 -19.96751,-20.58964 -4.1375,-6.14635 -8.87435,-16.3476 -10.81999,-23.30186 -1.47359,-5.26704 -1.57095,-7.50382 -1.83709,-28.57143 l -0.3015,-23.86729 1.31293,4.21458 c 15.95426,51.21408 85.52242,79.27181 140.45607,52.53788 4.29853,-2.09191 8.88913,-5.10571 9.98621,-6.03441 l 1.52784,-1.29333 -0.14407,25.45865 -0.0127,24.9103 -3.72697,2.13723 c 0,0 -2.31348,2.8337 -9.23996,5.74556 -6.47873,2.72363 -15.20797,5.0915 -20.75517,6.30162 -3.81934,0.83319 -12.08006,2.38389 -18.19592,2.64326 -4.67711,0.19836 -9.96689,0.15289 -14.24508,-0.28827 -3.02117,-0.31154 -5.31407,-1.04421 -7.51397,-1.04421 z"
       id="path896"
       inkscape:connector-curvature="0"
       transform="scale(0.26458333)"
       sodipodi:nodetypes="cscsscsssccccsssssc" />
    <path
       style="opacity:1;fill:none;fill-opacity:1;stroke:#000000;stroke-width:0.18517435;stroke-miterlimit:4;stroke-dasharray:0.74069737, 0.74069737;stroke-dashoffset:0;stroke-opacity:1"
       id="path838-8"
       sodipodi:type="arc"
       sodipodi:cx="159.9868"
       sodipodi:cy="-29.609728"
       sodipodi:rx="23.005787"
       sodipodi:ry="23.420092"
       sodipodi:start="0"
       sodipodi:end="2.2953413"
       d="M 182.99259,-29.609728 A 23.005787,23.420092 0 0 1 169.43326,-8.2550552 23.005787,23.420092 0 0 1 144.73869,-12.072738"
       transform="matrix(0.68326624,0.73016933,-0.82924539,0.55888467,0,0)"
       sodipodi:open="true" />
    <path
       style="fill:none;stroke:#000000;stroke-width:0.184;stroke-linecap:butt;stroke-linejoin:miter;stroke-miterlimit:4;stroke-dasharray:0.55200001, 0.55200001;stroke-dashoffset:0;stroke-opacity:1"
       d="m 149.63132,103.75967 -0.0472,13.22917"
       id="path859"
       inkscape:connector-curvature="0" />
    <path
       style="fill:none;stroke:#000000;stroke-width:0.26458332px;stroke-linecap:butt;stroke-linejoin:miter;stroke-opacity:1"
       d="M 34.680472,93.224568 79.512683,172.15172 166.0746,135.73625"
       id="path908"
       inkscape:connector-curvature="0" />
    <path
       style="opacity:1;fill:#3282c0;fill-opacity:1;stroke:none;stroke-width:0.24826963;stroke-miterlimit:4;stroke-dasharray:0.99307852, 0.99307852;stroke-dashoffset:0;stroke-opacity:1"
       d="m 452.94839,510.38337 c -1.76786,-1.10844 -6.01482,-3.38261 -9.4377,-5.05371 -14.78825,-7.21986 -23.75521,-10.38671 -43.84314,-15.48401 -15.74986,-3.99651 -25.98921,-8.56314 -45.46916,-20.27868 -11.11871,-6.68696 -17.68649,-10.91616 -19.99581,-12.87591 -7.41214,-6.29014 -15.40194,-16.58498 -23.18798,-29.87767 -11.09292,-18.93833 -14.74475,-34.82944 -13.00727,-37.41072 -1.33547,-4.09997 1.67819,-14.67342 1.88524,-15.87164 1.80606,-10.45166 1.19822,-6.86469 2.23394,-10.14873 0.87824,-2.78469 1.91999,-4.8356 2.81999,-7.16064 1.92581,-4.97506 4.53035,-8.31643 7.11762,-12.64015 3.35207,-5.60179 6.64624,-9.48213 9.60202,-13.1657 4.36542,-5.4403 10.50135,-9.8836 13.37117,-13.76137 3.71006,-5.0131 5.00961,-9.9433 6.67671,-14.75177 0,0 1.74642,-6.00662 2.10516,-8.08036 0.51176,-2.95833 0.35712,-6.87499 0.35712,-6.87499 l 80.10919,-0.66965 -0.56665,0.80357 c -0.31166,0.44197 -1.46532,2.2861 -2.5637,4.09807 -5.18378,8.55159 -8.52891,18.36811 -9.83052,28.84836 -0.52593,4.2347 -0.73222,12.97222 -0.31238,13.23169 0.44534,0.27523 0.42055,2.30403 -0.0282,2.30403 -0.19643,0 -0.35714,0.72321 -0.35714,1.60714 0,1.29244 0.12239,1.60718 0.625,1.60734 0.50311,1.6e-4 0.75228,0.64441 1.27765,3.30357 0.35895,1.81686 1.36953,5.39266 2.24572,7.94623 1.98301,5.77926 2.18317,6.60263 0.99844,4.10714 -1.12673,-2.37332 -4.07538,-11.16574 -4.07538,-12.15216 0,-0.38855 -0.24045,-0.70498 -0.53572,-0.70498 -0.3876,0 -0.53571,0.39807 -0.53571,1.43978 0,0.95035 0.18211,1.50966 0.53571,1.64535 0.60169,0.23089 0.76458,2.62916 0.17858,2.62916 -0.19643,0 -0.35715,0.64285 -0.35715,1.42857 0,0.78571 0.16072,1.42857 0.35715,1.42857 0.19642,0 0.35714,0.5625 0.35714,1.25 0,0.6875 -0.16072,1.25 -0.35714,1.25 -0.56564,0 -0.41801,2.8473 0.17857,3.44388 0.29464,0.29464 0.53571,0.92602 0.53571,1.40306 0,0.53288 -0.20658,0.86735 -0.53571,0.86735 -0.38691,0 -0.53572,0.39682 -0.53572,1.42857 0,1.03174 0.14881,1.42857 0.53572,1.42857 0.37415,0 0.53571,0.37698 0.53571,1.25 0,0.87301 -0.16156,1.25 -0.53571,1.25 -0.39683,0 -0.53572,0.41667 -0.53572,1.60714 0,1.19048 0.13889,1.60714 0.53572,1.60714 0.37415,0 0.53571,0.37699 0.53571,1.25 0,0.87302 -0.16156,1.25 -0.53571,1.25 -0.74987,0 -0.74987,2.79739 0,3.08514 0.76222,0.29249 0.76222,3.70058 0,3.70058 -0.38691,0 -0.53572,0.39682 -0.53572,1.42857 0,1.03175 0.14881,1.42857 0.53572,1.42857 0.35714,0 0.53571,0.35714 0.53571,1.07143 0,0.75091 -0.17361,1.07143 -0.58036,1.07143 -0.45952,0 -0.53388,0.23237 -0.35714,1.11607 0.12277,0.61384 0.22322,1.2567 0.22322,1.42857 0,0.17188 0.24107,0.3125 0.53571,0.3125 0.61361,0 0.76434,1.9594 0.17857,2.32143 -0.56128,0.34689 -0.43236,2.67212 0.16077,2.89973 0.38006,0.14584 0.50262,0.75062 0.46044,2.27221 -0.0337,1.21635 0.12711,2.29588 0.38904,2.61149 0.24558,0.2959 0.60896,1.54673 0.80751,2.77961 0.19855,1.23289 0.60137,2.41737 0.89516,2.63219 0.29378,0.21482 0.59532,1.05888 0.67009,1.87569 0.14384,1.57152 0.72361,2.96479 1.2337,2.96479 0.33832,0 0.89805,1.71285 0.78495,2.40204 -0.0966,0.58852 0.96241,2.59796 1.36916,2.59796 0.40142,0 0.88987,1.26354 1.04513,2.70354 0.0226,0.21015 0.53465,0.93337 1.13776,1.60714 0.60311,0.67377 1.18185,1.64776 1.28609,2.16443 0.10424,0.51666 0.8965,1.80124 1.76058,2.85461 0.86408,1.05337 1.57105,2.09703 1.57105,2.31924 0,0.22221 0.72321,1.1049 1.60714,1.96154 0.88393,0.85664 1.60715,1.68694 1.60715,1.84512 0,0.53998 1.56176,2.40153 2.01477,2.40153 0.24853,0 0.74063,0.41996 1.09355,0.93325 0.93363,1.35786 6.73795,7.28103 7.13495,7.28103 0.18555,0 0.80941,0.50007 1.38634,1.11127 2.02374,2.14395 9.36615,7.28216 14.26324,9.98139 12.35992,6.8127 23.84563,10.53247 40.35715,13.0701 6.00782,0.92334 20.02968,0.9204 25.89285,-0.005 17.33039,-2.73655 32.66071,-7.71521 38.85679,-12.61906 1.19309,-0.94426 2.96881,-2.15082 3.94606,-2.68124 1.75626,-0.95324 1.77456,-0.98111 1.58281,-2.41071 -0.12777,-0.95258 -0.056,-1.44632 0.21018,-1.44632 0.22229,0 0.40416,-0.48214 0.40416,-1.07143 0,-0.58928 -0.16071,-1.07142 -0.35714,-1.07142 -0.19643,0 -0.35714,-0.40179 -0.35714,-0.89286 0,-0.49107 0.16071,-0.89286 0.35714,-0.89286 0.19643,0 0.35714,-0.5625 0.35714,-1.25 0,-0.6875 -0.16071,-1.25 -0.35714,-1.25 -0.19643,0 -0.35714,-0.40178 -0.35714,-0.89286 0,-0.49107 0.16071,-0.89285 0.35714,-0.89285 0.19643,0 0.35714,-0.5625 0.35714,-1.25 0,-0.6875 -0.16071,-1.25 -0.35714,-1.25 -0.19643,0 -0.35714,-0.40179 -0.35714,-0.89286 0,-0.49107 0.16071,-0.89286 0.35714,-0.89286 0.19643,0 0.35714,-0.47265 0.35714,-1.05035 0,-0.57769 -0.16071,-1.14968 -0.35714,-1.27108 -0.46451,-0.28708 -0.46451,-1.60714 0,-1.60714 0.19643,0 0.35714,-0.5625 0.35714,-1.25 0,-0.6875 -0.16071,-1.25 -0.35714,-1.25 -0.19643,0 -0.35714,-0.40178 -0.35714,-0.89286 0,-0.49107 0.16071,-0.89285 0.35714,-0.89285 0.19643,0 0.35714,-0.5625 0.35714,-1.25 0,-0.6875 -0.16071,-1.25 -0.35714,-1.25 -0.19643,0 -0.35714,-0.40179 -0.35714,-0.89286 0,-0.49107 0.16071,-0.89286 0.35714,-0.89286 0.19643,0 0.35714,-0.5625 0.35714,-1.25 0,-0.6875 -0.16071,-1.25 -0.35714,-1.25 -0.19643,0 -0.35714,-0.31194 -0.35714,-0.6932 0,-0.38127 0.16071,-0.79254 0.35714,-0.91394 0.19643,-0.1214 0.35714,-0.69339 0.35714,-1.27108 0,-0.57769 -0.16071,-1.05035 -0.35714,-1.05035 -0.19643,0 -0.35714,-0.40178 -0.35714,-0.89286 0,-0.49107 0.16071,-0.89285 0.35714,-0.89285 0.19643,0 0.35714,-0.5625 0.35714,-1.25 0,-0.6875 -0.16071,-1.25 -0.35714,-1.25 -0.19643,0 -0.35714,-0.40179 -0.35714,-0.89286 0,-0.49107 0.16071,-0.89286 0.35714,-0.89286 0.19643,0 0.35714,-0.5625 0.35714,-1.25 0,-0.6875 -0.16071,-1.25 -0.35714,-1.25 -0.19643,0 -0.35714,-0.40178 -0.35714,-0.89285 0,-0.49108 0.16071,-0.89286 0.35714,-0.89286 0.19643,0 0.35714,-0.48214 0.35714,-1.07143 0,-0.58929 -0.16071,-1.07143 -0.35714,-1.07143 -0.51138,0 -0.44137,-1.39536 0.097,-1.93376 0.36746,-0.36746 6.42923,6.06366 31.75158,33.68623 22.79766,24.86854 31.16325,34.21681 30.80339,34.42176 -0.35588,0.2027 -151.77891,65.30348 -154.70744,66.49592 -11.03589,-13.39689 -11.21966,-13.19605 -20.62306,-18.56488 z"
       id="path950"
       inkscape:connector-curvature="0"
       transform="scale(0.26458333)"
       sodipodi:nodetypes="ccsssscsssssscscccccssssccsssscsssssssssssssssscssssscsscccccccscscscssssscssccccscsssssssssssssscssssssssssssssssssssssssssscscccc" />
    <path
       style="opacity:1;fill:#3282c0;fill-opacity:1;stroke:none;stroke-width:0.08777657;stroke-miterlimit:4;stroke-dasharray:0.35110628, 0.35110628;stroke-dashoffset:0;stroke-opacity:1"
       d="m 343.46853,283.22354 c -0.64828,-3.41891 -2.63624,-6.87361 -3.31062,-8.47638 -3.8309,-7.73446 -9.7407,-15.53334 -16.34003,-21.07779 -1.67803,-1.4098 -4.32039,-3.13451 -6.20981,-4.05324 -0.88055,-0.42816 -1.60502,-0.80747 -1.60993,-0.84291 -0.005,-0.0354 1.17009,-0.38655 2.61114,-0.78026 1.44105,-0.3937 5.85889,-1.60476 9.81742,-2.69125 21.80533,-5.98484 53.97207,-14.74499 75.12168,-20.45832 3.25942,-0.8805 5.99655,-1.62789 6.0825,-1.66088 0.14428,-0.0554 37.6113,40.67573 37.75103,41.03985 0.0365,0.0951 -0.53484,0.56006 -1.42655,1.16107 -7.64201,5.15075 -14.78652,11.90597 -20.2274,19.12524 l -1.44245,1.769 -44.29212,0.88261 c -44.40083,0.0631 -33.91932,-0.36588 -35.81707,-0.21296 z"
       id="path954"
       inkscape:connector-curvature="0"
       sodipodi:nodetypes="ccsccccccccccccc"
       transform="scale(0.26458333)" />
    <path
       style="fill:none;stroke:#000000;stroke-width:0.26458332;stroke-linecap:butt;stroke-linejoin:miter;stroke-miterlimit:4;stroke-dasharray:1.05833327, 1.05833327;stroke-dashoffset:0;stroke-opacity:1"
       d="m 125.29911,139.95089 c 0,0 1.06803,1.49735 1.52682,2.29271 0.41507,0.71954 1.10395,2.23417 1.10395,2.23417"
       id="path956"
       inkscape:connector-curvature="0"
       inkscape:transform-center-x="0.37797619"
       inkscape:transform-center-y="0.023623512"
       sodipodi:nodetypes="csc" />
    <path
       style="fill:none;stroke:#000000;stroke-width:0.26458332px;stroke-linecap:butt;stroke-linejoin:miter;stroke-opacity:1"
       d="m 118.08137,142.87448 c 0,9.6e-4 0.005,0.13293 0.0638,-0.10273 0.24698,-0.99771 0.83724,-4.05097 0.35549,-5.93302 -0.66349,-2.59207 -3.77888,-4.12884 -3.77888,-4.12884"
       id="path958"
       inkscape:connector-curvature="0"
       sodipodi:nodetypes="cssc" />
    <path
       style="fill:none;stroke:#000000;stroke-width:0.26499999;stroke-linecap:butt;stroke-linejoin:miter;stroke-miterlimit:4;stroke-dasharray:1.05999995, 1.05999995;stroke-dashoffset:0;stroke-opacity:1"
       d="m 114.72178,132.70989 c 0,0 4.14027,1.58347 7.27894,3.91029 0.52462,0.38892 1.97591,1.83732 2.13836,2.01827 0.40495,0.45109 1.0741,1.32723 1.0741,1.32723 v 0"
       id="path960"
       inkscape:connector-curvature="0"
       sodipodi:nodetypes="csscc" />
    <path
       style="opacity:1;fill:#8acd87;fill-opacity:1;stroke:none;stroke-width:0.34555683;stroke-miterlimit:4;stroke-dasharray:none;stroke-dashoffset:0;stroke-opacity:1"
       d="m 300.36418,648.9844 c -0.2701,-0.43261 -23.44092,-41.20621 -51.49069,-90.60799 -28.04978,-49.40179 -65.89252,-116.03979 -84.09497,-148.08446 l -33.09537,-58.26303 -0.23577,-13.52268 c -0.12967,-7.43748 -0.33758,-16.29501 -0.46201,-19.6834 l -0.22625,-6.16072 -0.0383,-7.23205 4.24742,7.23224 82.29612,145.26776 c 45.26286,79.89727 82.32542,145.31247 82.36124,145.3671 0.0358,0.0546 33.07399,-13.90942 73.41817,-31.03122 64.43013,-27.34374 73.87437,-31.25652 77.63876,-32.16602 12.33662,-2.98064 18.35979,-2.80955 25.71428,0.73039 3.31966,1.59785 5.51813,3.6456 6.95122,6.47466 2.35858,4.65608 2.30222,9.96456 -0.16048,15.11563 -1.34995,2.82359 -6.67079,8.94422 -9.76431,11.23198 -6.51821,4.82045 -16.61952,10.47054 -23.455,13.11939 -1.96428,0.76118 -3.8125,1.57862 -4.10714,1.81653 -0.378,0.30521 -117.52798,49.74047 -143.66362,60.62355 -1.29447,0.53903 -1.35967,0.53093 -1.8333,-0.22766 z"
       id="path1021"
       inkscape:connector-curvature="0"
       sodipodi:nodetypes="csscsccccscscsccccccc"
       transform="scale(0.26458333)" />
    <path
       style="opacity:1;fill:url(#linearGradient1015);fill-opacity:1;stroke:none;stroke-width:0.69111365;stroke-miterlimit:4;stroke-dasharray:none;stroke-dashoffset:0;stroke-opacity:1"
       d="m 215.7807,452.16992 c -46.37114,-81.8125 -84.06156,-149.0142 -83.75651,-149.33712 2.28741,-2.42137 66.55519,-21.34389 165.25931,-48.65769 l 17.02178,-4.71034 3.59267,1.95538 c 9.9076,5.39239 16.93615,17.22612 16.98917,28.60407 0.034,7.29977 -5.45744,19.4067 -15.62698,34.45253 -12.26373,18.14419 -13.57662,20.19696 -16.36434,25.58635 -6.01297,11.62465 -8.53957,25.04151 -7.76119,41.21397 0.75479,15.68241 3.46082,25.44088 11.07439,39.93646 8.19349,15.59972 18.94724,30.05047 27.41991,36.84655 5.79514,4.64838 25.71753,16.68129 37.37069,22.57149 10.76111,5.4393 17.85956,8.00295 33.398,12.06189 25.89578,6.76449 35.6223,11.73604 41.06105,20.98773 1.79111,3.04681 1.94385,3.90686 1.9197,10.81016 -0.0144,4.125 -0.42277,9.26999 -0.90742,11.43331 l -0.88117,3.93331 -71.97873,30.53098 c -39.5883,16.79203 -72.32533,30.53097 -72.74895,30.53097 -0.42363,0 -38.71025,-66.9375 -85.08138,-148.75 z"
       id="path1023"
       inkscape:connector-curvature="0"
       transform="scale(0.26458333)" />
    <path
       style="opacity:1;fill:#82a5a6;fill-opacity:1;stroke:none;stroke-width:0.25253811;stroke-miterlimit:4;stroke-dasharray:none;stroke-dashoffset:0;stroke-opacity:1"
       d="m 478.79709,540.58711 c -1.84347,-1.14862 -4.6567,-2.29452 -7.57935,-3.08726 -2.17086,-0.58883 -2.86903,-0.65584 -6.83716,-0.65622 -3.15009,-3e-4 -5.1325,0.12915 -6.90213,0.45072 -1.36548,0.24813 -2.53158,0.40227 -2.59133,0.34252 -0.0856,-0.0856 7.08416,-3.18461 17.70873,-7.65437 l 0.76539,-0.32201 2.56418,3.83147 c 2.3327,3.48561 4.60509,7.33146 4.61404,7.80895 0.006,0.30953 -0.30306,0.18299 -1.74237,-0.7138 z"
       id="path1029"
       inkscape:connector-curvature="0"
       transform="scale(0.26458333)" />
    <path
       style="opacity:0.52899996;fill:#3282c0;fill-opacity:1;stroke:none;stroke-width:0.06681737;stroke-miterlimit:4;stroke-dasharray:none;stroke-dashoffset:0;stroke-opacity:1"
       d="m 129.97701,136.95679 c 0.39215,-1.56245 0.52619,-4.74868 0.24097,-5.72809 -0.22332,-0.76687 -0.63411,-1.44936 -1.35782,-2.2559 -0.2791,-0.31105 -0.4962,-0.5768 -0.48244,-0.59056 0.0452,-0.0453 2.27544,1.11908 3.15496,1.64715 1.25462,0.75326 2.0736,1.38578 3.12021,2.40983 0.88109,0.86209 1.7784,1.84271 1.7784,1.94351 0,0.0505 -0.28207,0.17344 -3.93165,1.71422 -1.33553,0.56384 -2.45882,1.02516 -2.49619,1.02516 -0.0389,0 -0.0502,-0.0706 -0.0264,-0.16532 z"
       id="path1031"
       inkscape:connector-curvature="0" />
    <path
       style="opacity:1;fill:#3282c0;fill-opacity:1;stroke:none;stroke-width:0.25253811;stroke-miterlimit:4;stroke-dasharray:1.01015249, 1.01015249;stroke-dashoffset:0;stroke-opacity:1"
       d="m 470.60049,577.15416 c 5.14259,-3.44593 7.16088,-5.26802 10.54486,-9.51976 2.57044,-3.22959 3.23987,-4.36876 4.17538,-7.10534 1.03848,-3.03778 1.24069,-7.31918 0.48486,-10.26593 -0.70468,-2.74733 -3.23915,-8.03826 -3.75557,-7.84009 -0.39151,0.15024 -1.69286,-0.68815 -1.44809,-0.93293 0.0744,-0.0744 -0.0911,-0.57908 -0.36776,-1.12144 -0.49941,-0.97893 -0.49947,-0.98839 -0.008,-1.29549 0.48432,-0.30246 0.47966,-0.33731 -0.20902,-1.56406 -1.18835,-2.11683 -1.43393,-2.36455 -2.02861,-2.04629 -0.4686,0.25079 -0.61925,0.11832 -1.54551,-1.35897 -0.56447,-0.90027 -0.94519,-1.63859 -0.84604,-1.64072 0.0991,-0.002 0.33476,-0.10176 0.5236,-0.22141 0.27133,-0.17191 0.15293,-0.50029 -0.56448,-1.56559 -0.49931,-0.74143 -0.82337,-1.43252 -0.72014,-1.53575 0.14216,-0.14216 154.26057,-65.61629 154.45304,-65.61629 0.12594,0 -2.20091,48.89553 -2.3335,49.03546 -0.17657,0.18635 -159.70862,67.35156 -160.52217,67.58207 -0.2778,0.0787 1.5973,-1.26565 4.16687,-2.98747 z"
       id="path1037"
       inkscape:connector-curvature="0"
       transform="scale(0.26458333)" />
    <path
       style="fill:none;stroke:#000000;stroke-width:0.26499999;stroke-linecap:butt;stroke-linejoin:miter;stroke-miterlimit:4;stroke-dasharray:1.05999995, 1.05999995;stroke-dashoffset:0;stroke-opacity:1"
       d="m 87.01134,68.574816 c 0,0 2.136414,2.353603 2.98403,4.38427 0.306728,0.73484 0.643367,1.568433 0.826321,2.398098 0.0625,0.283422 0.107064,0.566385 0.126375,0.844796 0.07459,1.075329 -0.259964,1.989592 -0.407788,2.65218 -0.30231,1.355035 -0.422634,2.833843 -2.122988,5.099311 -1.447457,1.92852 -3.446886,3.238689 -5.200005,5.740275 -0.71629,1.022098 -1.946821,2.887178 -3.180947,5.743922 -0.852922,1.974335 -1.302892,5.230052 -1.391987,8.675252 -0.01184,0.45765 -0.07254,-0.4005 -0.07254,-0.4005"
       id="path1039"
       inkscape:connector-curvature="0"
       sodipodi:nodetypes="cssssssssc" />
    <path
       style="fill:none;stroke:#000000;stroke-width:0.26458332px;stroke-linecap:butt;stroke-linejoin:miter;stroke-opacity:1;marker-start:url(#Arrow1Lend);marker-end:url(#Arrow1Lstart)"
       d="M 99.424264,163.76614 V 150.66993"
       id="path1043"
       inkscape:connector-curvature="0" />
    <path
       style="fill:none;stroke:#000000;stroke-width:0.26458332px;stroke-linecap:butt;stroke-linejoin:miter;stroke-opacity:1"
       d="m 99.357446,166.63929 -0.06682,5.34539 3.975634,-0.10023"
       id="path1443"
       inkscape:connector-curvature="0" />
    <text
       xml:space="preserve"
       style="font-style:normal;font-weight:normal;font-size:3.88055563px;line-height:1.25;font-family:sans-serif;letter-spacing:0px;word-spacing:0px;writing-mode:lr-tb;fill:#000000;fill-opacity:1;stroke:none;stroke-width:0.26458332"
       x="104.01526"
       y="172.92477"
       id="text1447"><tspan
         sodipodi:role="line"
         id="tspan1445"
         x="104.01526"
         y="172.92477"
         style="font-size:3.88055563px;stroke-width:0.26458332">h</tspan></text>
    <path
       style="fill:none;stroke:#000000;stroke-width:0.26458332px;stroke-linecap:butt;stroke-linejoin:miter;stroke-opacity:1;marker-start:url(#marker1347)"
       d="m 132.60364,112.51635 4.12925,-13.953853 15.48515,-6.56491"
       id="path1449"
       inkscape:connector-curvature="0"
       sodipodi:nodetypes="ccc" />
    <text
       xml:space="preserve"
       style="font-style:normal;font-weight:normal;font-size:3.88055563px;line-height:1.25;font-family:sans-serif;letter-spacing:0px;word-spacing:0px;writing-mode:lr-tb;fill:#000000;fill-opacity:1;stroke:none;stroke-width:0.26458332"
       x="153.38435"
       y="92.538094"
       id="text1465"><tspan
         sodipodi:role="line"
         id="tspan1463"
         x="153.38435"
         y="92.538094"
         style="font-size:3.88055563px;stroke-width:0.26458332">A<tspan
   style="font-size:3.88055563px;baseline-shift:sub"
   id="tspan890">ws</tspan></tspan></text>
    <text
       xml:space="preserve"
       style="font-style:normal;font-weight:normal;font-size:3.88055563px;line-height:1.25;font-family:sans-serif;letter-spacing:0px;word-spacing:0px;writing-mode:lr-tb;fill:#000000;fill-opacity:1;stroke:none;stroke-width:0.26458332"
       x="90.411903"
       y="70.100899"
       id="text1583"><tspan
         sodipodi:role="line"
         id="tspan1581"
         x="90.411903"
         y="70.100899"
         style="stroke-width:0.26458332">Fluid w</tspan></text>
    <text
       xml:space="preserve"
       style="font-style:normal;font-weight:normal;font-size:3.88055563px;line-height:1.25;font-family:sans-serif;letter-spacing:0px;word-spacing:0px;writing-mode:lr-tb;fill:#000000;fill-opacity:1;stroke:none;stroke-width:0.26458332"
       x="42.921879"
       y="87.157997"
       id="text1583-4"><tspan
         sodipodi:role="line"
         id="tspan1581-2"
         x="42.921879"
         y="87.157997"
         style="stroke-width:0.26458332">Fluid o</tspan></text>
    <path
       style="fill:none;stroke:#000000;stroke-width:0.26458332px;stroke-linecap:butt;stroke-linejoin:miter;stroke-opacity:1;marker-start:url(#marker1347-9)"
       d="m 122.18937,136.94187 17.92369,17.07403 4.16423,6e-5"
       id="path1449-1"
       inkscape:connector-curvature="0"
       sodipodi:nodetypes="ccc" />
    <text
       xml:space="preserve"
       style="font-style:normal;font-weight:normal;font-size:3.88055563px;line-height:1.25;font-family:sans-serif;letter-spacing:0px;word-spacing:0px;writing-mode:lr-tb;fill:#000000;fill-opacity:1;stroke:none;stroke-width:0.26458332"
       x="145.5"
       y="153.66422"
       id="text1465-0"><tspan
         sodipodi:role="line"
         id="tspan1463-4"
         x="145.5"
         y="153.66422"
         style="font-size:3.88055563px;stroke-width:0.26458332">A<tspan
   style="font-size:3.88055563px;baseline-shift:sub"
   id="tspan888">wo</tspan></tspan></text>
    <path
       style="fill:none;stroke:#000000;stroke-width:0.26458332px;stroke-linecap:butt;stroke-linejoin:miter;stroke-opacity:1"
       d="M 34.395828,80.041659 34.206844,70.781248"
       id="path2634"
       inkscape:connector-curvature="0" />
    <path
       style="fill:none;stroke:#000000;stroke-width:0.26458332px;stroke-linecap:butt;stroke-linejoin:miter;stroke-opacity:1"
       d="m 108.47916,58.874993 0.37798,-7.559517"
       id="path2636"
       inkscape:connector-curvature="0" />
    <path
       style="fill:none;stroke:#000000;stroke-width:0.26458332px;stroke-linecap:butt;stroke-linejoin:miter;stroke-opacity:1;marker-start:url(#marker2700);marker-end:url(#marker2648)"
       d="M 34.11235,73.427081 108.62091,53.299849"
       id="path2638"
       inkscape:connector-curvature="0" />
    <text
       xml:space="preserve"
       style="font-style:normal;font-weight:normal;font-size:3.88055563px;line-height:1.25;font-family:sans-serif;letter-spacing:0px;word-spacing:0px;writing-mode:lr-tb;fill:#000000;fill-opacity:1;stroke:none;stroke-width:0.26458332"
       x="68.1437"
       y="61.723862"
       id="text2770"><tspan
         sodipodi:role="line"
         id="tspan2768"
         x="68.1437"
         y="61.723862"
         style="font-size:3.88055563px;stroke-width:0.26458332">l</tspan></text>
    <path
       style="fill:none;stroke:#000000;stroke-width:0.36500001;stroke-linecap:butt;stroke-linejoin:miter;stroke-miterlimit:4;stroke-dasharray:0.365, 0.73;stroke-dashoffset:0;stroke-opacity:1"
       d="m 108.54639,146.92916 c 0,0 -2.80633,-5.40681 -5.0995,-7.285 -3.2809,-2.68717 -7.905171,-3.12046 -11.655988,-5.09949 -4.052294,-2.1381 -8.520614,-3.94403 -11.655988,-7.28499 -3.147584,-3.35397 -4.942164,-7.83465 -6.556491,-12.14166 -1.80571,-4.81762 -3.569346,-9.91355 -3.399663,-15.05565 0.150354,-4.556347 2.017637,-8.954303 3.885329,-13.112985 1.44473,-3.216897 5.233197,-5.476006 5.585159,-8.984822 C 80.019906,74.269357 75.763921,67.52274 75.763921,67.52274"
       id="path955"
       inkscape:connector-curvature="0"
       sodipodi:nodetypes="casaaaaac" />
    <path
       style="fill:#000000;fill-opacity:1;stroke:#000000;stroke-width:0.26458332px;stroke-linecap:butt;stroke-linejoin:miter;stroke-opacity:1"
       d="m 76.067461,82.760515 1.517706,0.728498 0.303543,-1.760537 z"
       id="path957"
       inkscape:connector-curvature="0" />
    <path
       style="fill:#000000;fill-opacity:1;stroke:#000000;stroke-width:0.26458332px;stroke-linecap:butt;stroke-linejoin:miter;stroke-opacity:1"
       d="M 71.321649,111.45411 72.900064,111.08986 71.32165,108.358 Z"
       id="path957-4"
       inkscape:connector-curvature="0"
       sodipodi:nodetypes="cccc" />
    <path
       style="fill:#000000;fill-opacity:1;stroke:#000000;stroke-width:0.26458332px;stroke-linecap:butt;stroke-linejoin:miter;stroke-opacity:1"
       d="m 99.505636,138.07154 0.425513,-1.56179 -2.637818,0.0619 z"
       id="path957-5"
       inkscape:connector-curvature="0"
       sodipodi:nodetypes="cccc" />
    <path
       style="fill:none;stroke:#000000;stroke-width:0.36500001;stroke-linecap:butt;stroke-linejoin:miter;stroke-miterlimit:4;stroke-dasharray:0.365, 0.73000001;stroke-dashoffset:0;stroke-opacity:1"
       d="m 135.5168,139.65081 c 0,0 -2.80633,-5.4068 -5.0995,-7.28499 -3.2809,-2.68717 -7.90517,-3.12046 -11.65599,-5.09949 -4.05229,-2.13811 -8.52061,-3.94403 -11.65599,-7.28499 -3.14758,-3.35397 -4.94216,-7.83465 -6.55649,-12.14167 -1.805711,-4.81762 -3.569341,-9.91354 -3.399661,-15.05564 0.15035,-4.55635 2.01764,-8.95431 3.885331,-13.11299 1.44473,-3.216896 5.2332,-5.476005 5.58516,-8.984822 0.37066,-3.695206 -3.88533,-10.441823 -3.88533,-10.441823"
       id="path955-4"
       inkscape:connector-curvature="0"
       sodipodi:nodetypes="casaaaaac" />
    <path
       style="fill:#000000;fill-opacity:1;stroke:#000000;stroke-width:0.26458332px;stroke-linecap:butt;stroke-linejoin:miter;stroke-opacity:1"
       d="m 100.76884,78.630895 1.5177,0.728498 0.30355,-1.760537 z"
       id="path957-0"
       inkscape:connector-curvature="0" />
    <path
       style="fill:#000000;fill-opacity:1;stroke:#000000;stroke-width:0.26458332px;stroke-linecap:butt;stroke-linejoin:miter;stroke-opacity:1"
       d="m 98.250821,103.95948 1.578415,-0.36425 -1.578414,-2.73186 z"
       id="path957-4-9"
       inkscape:connector-curvature="0"
       sodipodi:nodetypes="cccc" />
    <path
       style="fill:#000000;fill-opacity:1;stroke:#000000;stroke-width:0.26458332px;stroke-linecap:butt;stroke-linejoin:miter;stroke-opacity:1"
       d="m 122.91672,129.70193 0.42551,-1.56179 -2.63782,0.0619 z"
       id="path957-5-2"
       inkscape:connector-curvature="0"
       sodipodi:nodetypes="cccc" />
  </g>
</svg>
